%TF.GenerationSoftware,KiCad,Pcbnew,(6.0.5-0)*%
%TF.CreationDate,2023-07-17T15:50:24+09:00*%
%TF.ProjectId,l9110h-1ch-driver,6c393131-3068-42d3-9163-682d64726976,rev?*%
%TF.SameCoordinates,Original*%
%TF.FileFunction,Copper,L1,Top*%
%TF.FilePolarity,Positive*%
%FSLAX46Y46*%
G04 Gerber Fmt 4.6, Leading zero omitted, Abs format (unit mm)*
G04 Created by KiCad (PCBNEW (6.0.5-0)) date 2023-07-17 15:50:24*
%MOMM*%
%LPD*%
G01*
G04 APERTURE LIST*
%TA.AperFunction,ComponentPad*%
%ADD10R,1.700000X1.700000*%
%TD*%
%TA.AperFunction,ComponentPad*%
%ADD11O,1.700000X1.700000*%
%TD*%
%TA.AperFunction,ComponentPad*%
%ADD12C,1.600000*%
%TD*%
%TA.AperFunction,ComponentPad*%
%ADD13R,1.600000X1.600000*%
%TD*%
%TA.AperFunction,ComponentPad*%
%ADD14O,1.600000X1.600000*%
%TD*%
%TA.AperFunction,Conductor*%
%ADD15C,0.250000*%
%TD*%
G04 APERTURE END LIST*
D10*
%TO.P,J1,1,Pin_1*%
%TO.N,Net-(J1-Pad1)*%
X106680000Y-107432000D03*
D11*
%TO.P,J1,2,Pin_2*%
%TO.N,Net-(J1-Pad2)*%
X106680000Y-104892000D03*
%TO.P,J1,3,Pin_3*%
%TO.N,Net-(J1-Pad3)*%
X106680000Y-102352000D03*
%TO.P,J1,4,Pin_4*%
%TO.N,Net-(J1-Pad4)*%
X106680000Y-99812000D03*
%TD*%
D12*
%TO.P,C1,1*%
%TO.N,Net-(C1-Pad1)*%
X125984000Y-106132000D03*
%TO.P,C1,2*%
%TO.N,Net-(C1-Pad2)*%
X125984000Y-101132000D03*
%TD*%
D13*
%TO.P,U1,1,OA*%
%TO.N,Net-(C1-Pad1)*%
X114300000Y-107432000D03*
D14*
%TO.P,U1,2,VCC*%
%TO.N,Net-(J1-Pad1)*%
X116840000Y-107432000D03*
%TO.P,U1,3,VCC*%
X119380000Y-107432000D03*
%TO.P,U1,4,OB*%
%TO.N,Net-(C1-Pad2)*%
X121920000Y-107432000D03*
%TO.P,U1,5,GND*%
%TO.N,Net-(J1-Pad2)*%
X121920000Y-99812000D03*
%TO.P,U1,6,IA*%
%TO.N,Net-(J1-Pad3)*%
X119380000Y-99812000D03*
%TO.P,U1,7,IB*%
%TO.N,Net-(J1-Pad4)*%
X116840000Y-99812000D03*
%TO.P,U1,8,GND*%
%TO.N,Net-(J1-Pad2)*%
X114300000Y-99812000D03*
%TD*%
D10*
%TO.P,J2,1,Pin_1*%
%TO.N,Net-(C1-Pad1)*%
X131572000Y-104907000D03*
D11*
%TO.P,J2,2,Pin_2*%
%TO.N,Net-(C1-Pad2)*%
X131572000Y-102367000D03*
%TD*%
D15*
%TO.N,Net-(C1-Pad1)*%
X125984000Y-106132000D02*
X127294000Y-106132000D01*
X128519000Y-104907000D02*
X131572000Y-104907000D01*
X127294000Y-106132000D02*
X128519000Y-104907000D01*
%TO.N,Net-(C1-Pad2)*%
X123444000Y-107442000D02*
X123952000Y-106934000D01*
X125984000Y-101132000D02*
X127294000Y-101132000D01*
X128529000Y-102367000D02*
X131572000Y-102367000D01*
X127294000Y-101132000D02*
X128529000Y-102367000D01*
X124420000Y-101132000D02*
X125984000Y-101132000D01*
X123952000Y-101600000D02*
X124420000Y-101132000D01*
X121920000Y-107442000D02*
X123444000Y-107442000D01*
X123952000Y-106934000D02*
X123952000Y-101600000D01*
%TO.N,Net-(J1-Pad1)*%
X115570000Y-108712000D02*
X112776000Y-108712000D01*
X112776000Y-108712000D02*
X111496000Y-107432000D01*
X119380000Y-107442000D02*
X116840000Y-107442000D01*
X116840000Y-107442000D02*
X115570000Y-108712000D01*
X111496000Y-107432000D02*
X106680000Y-107432000D01*
%TO.N,Net-(J1-Pad3)*%
X119380000Y-99822000D02*
X119380000Y-101600000D01*
X118628000Y-102352000D02*
X106680000Y-102352000D01*
X119380000Y-101600000D02*
X118628000Y-102352000D01*
%TO.N,Net-(J1-Pad4)*%
X116840000Y-99060000D02*
X116332000Y-98552000D01*
X112776000Y-98552000D02*
X111506000Y-99822000D01*
X116332000Y-98552000D02*
X112776000Y-98552000D01*
X106690000Y-99822000D02*
X106680000Y-99812000D01*
X116840000Y-99822000D02*
X116840000Y-99060000D01*
X111506000Y-99822000D02*
X106690000Y-99822000D01*
%TD*%
%TA.AperFunction,NonConductor*%
G36*
X111897526Y-98318502D02*
G01*
X111944019Y-98372158D01*
X111954123Y-98442432D01*
X111924629Y-98507012D01*
X111918500Y-98513595D01*
X111280500Y-99151595D01*
X111218188Y-99185621D01*
X111191405Y-99188500D01*
X107963274Y-99188500D01*
X107895153Y-99168498D01*
X107857482Y-99130940D01*
X107762822Y-98984617D01*
X107762820Y-98984614D01*
X107760014Y-98980277D01*
X107609670Y-98815051D01*
X107605619Y-98811852D01*
X107605615Y-98811848D01*
X107438414Y-98679800D01*
X107438410Y-98679798D01*
X107434359Y-98676598D01*
X107426304Y-98672151D01*
X107382136Y-98647769D01*
X107238789Y-98568638D01*
X107208034Y-98557747D01*
X107167161Y-98543273D01*
X107109624Y-98501679D01*
X107083708Y-98435581D01*
X107097642Y-98365966D01*
X107147000Y-98314934D01*
X107209220Y-98298500D01*
X111829405Y-98298500D01*
X111897526Y-98318502D01*
G37*
%TD.AperFunction*%
%TA.AperFunction,NonConductor*%
G36*
X121623859Y-98318502D02*
G01*
X121670352Y-98372158D01*
X121680456Y-98442432D01*
X121650962Y-98507012D01*
X121588350Y-98546207D01*
X121470757Y-98577716D01*
X121465776Y-98580039D01*
X121465775Y-98580039D01*
X121268238Y-98672151D01*
X121268233Y-98672154D01*
X121263251Y-98674477D01*
X121216554Y-98707175D01*
X121080211Y-98802643D01*
X121080208Y-98802645D01*
X121075700Y-98805802D01*
X120913802Y-98967700D01*
X120910645Y-98972208D01*
X120910643Y-98972211D01*
X120855902Y-99050389D01*
X120782477Y-99155251D01*
X120780154Y-99160233D01*
X120780151Y-99160238D01*
X120764195Y-99194457D01*
X120717278Y-99247742D01*
X120649001Y-99267203D01*
X120581041Y-99246661D01*
X120535805Y-99194457D01*
X120519849Y-99160238D01*
X120519846Y-99160233D01*
X120517523Y-99155251D01*
X120444098Y-99050389D01*
X120389357Y-98972211D01*
X120389355Y-98972208D01*
X120386198Y-98967700D01*
X120224300Y-98805802D01*
X120219792Y-98802645D01*
X120219789Y-98802643D01*
X120083446Y-98707175D01*
X120036749Y-98674477D01*
X120031767Y-98672154D01*
X120031762Y-98672151D01*
X119834225Y-98580039D01*
X119834224Y-98580039D01*
X119829243Y-98577716D01*
X119711649Y-98546207D01*
X119651028Y-98509255D01*
X119620006Y-98445394D01*
X119628435Y-98374900D01*
X119673638Y-98320153D01*
X119744262Y-98298500D01*
X121555738Y-98298500D01*
X121623859Y-98318502D01*
G37*
%TD.AperFunction*%
%TA.AperFunction,NonConductor*%
G36*
X119083859Y-98318502D02*
G01*
X119130352Y-98372158D01*
X119140456Y-98442432D01*
X119110962Y-98507012D01*
X119048350Y-98546207D01*
X118930757Y-98577716D01*
X118925776Y-98580039D01*
X118925775Y-98580039D01*
X118728238Y-98672151D01*
X118728233Y-98672154D01*
X118723251Y-98674477D01*
X118676554Y-98707175D01*
X118540211Y-98802643D01*
X118540208Y-98802645D01*
X118535700Y-98805802D01*
X118373802Y-98967700D01*
X118370645Y-98972208D01*
X118370643Y-98972211D01*
X118315902Y-99050389D01*
X118242477Y-99155251D01*
X118240154Y-99160233D01*
X118240151Y-99160238D01*
X118224195Y-99194457D01*
X118177278Y-99247742D01*
X118109001Y-99267203D01*
X118041041Y-99246661D01*
X117995805Y-99194457D01*
X117979849Y-99160238D01*
X117979846Y-99160233D01*
X117977523Y-99155251D01*
X117904098Y-99050389D01*
X117849357Y-98972211D01*
X117849355Y-98972208D01*
X117846198Y-98967700D01*
X117684300Y-98805802D01*
X117679792Y-98802645D01*
X117679789Y-98802643D01*
X117543446Y-98707175D01*
X117496749Y-98674477D01*
X117491767Y-98672154D01*
X117491762Y-98672151D01*
X117294223Y-98580038D01*
X117294221Y-98580037D01*
X117289243Y-98577716D01*
X117273192Y-98573415D01*
X117216709Y-98540804D01*
X117189500Y-98513595D01*
X117155474Y-98451283D01*
X117160539Y-98380468D01*
X117203086Y-98323632D01*
X117269606Y-98298821D01*
X117278595Y-98298500D01*
X119015738Y-98298500D01*
X119083859Y-98318502D01*
G37*
%TD.AperFunction*%
%TA.AperFunction,NonConductor*%
G36*
X112941212Y-99386858D02*
G01*
X112998048Y-99429405D01*
X113022859Y-99495925D01*
X113018886Y-99537526D01*
X113007882Y-99578591D01*
X113007881Y-99578598D01*
X113006457Y-99583913D01*
X112986502Y-99812000D01*
X113006457Y-100040087D01*
X113007881Y-100045400D01*
X113007881Y-100045402D01*
X113055851Y-100224425D01*
X113065716Y-100261243D01*
X113068039Y-100266224D01*
X113068039Y-100266225D01*
X113160151Y-100463762D01*
X113160154Y-100463767D01*
X113162477Y-100468749D01*
X113216556Y-100545982D01*
X113288546Y-100648793D01*
X113293802Y-100656300D01*
X113455700Y-100818198D01*
X113460208Y-100821355D01*
X113460211Y-100821357D01*
X113500445Y-100849529D01*
X113643251Y-100949523D01*
X113648233Y-100951846D01*
X113648238Y-100951849D01*
X113801068Y-101023114D01*
X113850757Y-101046284D01*
X113856065Y-101047706D01*
X113856067Y-101047707D01*
X114066598Y-101104119D01*
X114066600Y-101104119D01*
X114071913Y-101105543D01*
X114300000Y-101125498D01*
X114528087Y-101105543D01*
X114533400Y-101104119D01*
X114533402Y-101104119D01*
X114743933Y-101047707D01*
X114743935Y-101047706D01*
X114749243Y-101046284D01*
X114798932Y-101023114D01*
X114951762Y-100951849D01*
X114951767Y-100951846D01*
X114956749Y-100949523D01*
X115099555Y-100849529D01*
X115139789Y-100821357D01*
X115139792Y-100821355D01*
X115144300Y-100818198D01*
X115306198Y-100656300D01*
X115311455Y-100648793D01*
X115383444Y-100545982D01*
X115437523Y-100468749D01*
X115439846Y-100463767D01*
X115439849Y-100463762D01*
X115455805Y-100429543D01*
X115502722Y-100376258D01*
X115570999Y-100356797D01*
X115638959Y-100377339D01*
X115684195Y-100429543D01*
X115700151Y-100463762D01*
X115700154Y-100463767D01*
X115702477Y-100468749D01*
X115756556Y-100545982D01*
X115828546Y-100648793D01*
X115833802Y-100656300D01*
X115995700Y-100818198D01*
X116000208Y-100821355D01*
X116000211Y-100821357D01*
X116040445Y-100849529D01*
X116183251Y-100949523D01*
X116188233Y-100951846D01*
X116188238Y-100951849D01*
X116341068Y-101023114D01*
X116390757Y-101046284D01*
X116396065Y-101047706D01*
X116396067Y-101047707D01*
X116606598Y-101104119D01*
X116606600Y-101104119D01*
X116611913Y-101105543D01*
X116840000Y-101125498D01*
X117068087Y-101105543D01*
X117073400Y-101104119D01*
X117073402Y-101104119D01*
X117283933Y-101047707D01*
X117283935Y-101047706D01*
X117289243Y-101046284D01*
X117338932Y-101023114D01*
X117491762Y-100951849D01*
X117491767Y-100951846D01*
X117496749Y-100949523D01*
X117639555Y-100849529D01*
X117679789Y-100821357D01*
X117679792Y-100821355D01*
X117684300Y-100818198D01*
X117846198Y-100656300D01*
X117851455Y-100648793D01*
X117923444Y-100545982D01*
X117977523Y-100468749D01*
X117979846Y-100463767D01*
X117979849Y-100463762D01*
X117995805Y-100429543D01*
X118042722Y-100376258D01*
X118110999Y-100356797D01*
X118178959Y-100377339D01*
X118224195Y-100429543D01*
X118240151Y-100463762D01*
X118240154Y-100463767D01*
X118242477Y-100468749D01*
X118296556Y-100545982D01*
X118368546Y-100648793D01*
X118373802Y-100656300D01*
X118535700Y-100818198D01*
X118540208Y-100821355D01*
X118540211Y-100821357D01*
X118692771Y-100928181D01*
X118737099Y-100983638D01*
X118746500Y-101031394D01*
X118746500Y-101285405D01*
X118726498Y-101353526D01*
X118709595Y-101374501D01*
X118402499Y-101681596D01*
X118340187Y-101715621D01*
X118313404Y-101718500D01*
X107956805Y-101718500D01*
X107888684Y-101698498D01*
X107851013Y-101660940D01*
X107762822Y-101524617D01*
X107762820Y-101524614D01*
X107760014Y-101520277D01*
X107609670Y-101355051D01*
X107605619Y-101351852D01*
X107605615Y-101351848D01*
X107438414Y-101219800D01*
X107438410Y-101219798D01*
X107434359Y-101216598D01*
X107393053Y-101193796D01*
X107343084Y-101143364D01*
X107328312Y-101073921D01*
X107353428Y-101007516D01*
X107380780Y-100980909D01*
X107429207Y-100946366D01*
X107559860Y-100853173D01*
X107591788Y-100821357D01*
X107714435Y-100699137D01*
X107718096Y-100695489D01*
X107734517Y-100672637D01*
X107845441Y-100518269D01*
X107845442Y-100518267D01*
X107848453Y-100514077D01*
X107848865Y-100514373D01*
X107898669Y-100468517D01*
X107954443Y-100455500D01*
X111427233Y-100455500D01*
X111438416Y-100456027D01*
X111445909Y-100457702D01*
X111453835Y-100457453D01*
X111453836Y-100457453D01*
X111513986Y-100455562D01*
X111517945Y-100455500D01*
X111545856Y-100455500D01*
X111549791Y-100455003D01*
X111549856Y-100454995D01*
X111561693Y-100454062D01*
X111593951Y-100453048D01*
X111597970Y-100452922D01*
X111605889Y-100452673D01*
X111625343Y-100447021D01*
X111644700Y-100443013D01*
X111656930Y-100441468D01*
X111656931Y-100441468D01*
X111664797Y-100440474D01*
X111672168Y-100437555D01*
X111672170Y-100437555D01*
X111705912Y-100424196D01*
X111717142Y-100420351D01*
X111751983Y-100410229D01*
X111751984Y-100410229D01*
X111759593Y-100408018D01*
X111766412Y-100403985D01*
X111766417Y-100403983D01*
X111777028Y-100397707D01*
X111794776Y-100389012D01*
X111813617Y-100381552D01*
X111849387Y-100355564D01*
X111859307Y-100349048D01*
X111890535Y-100330580D01*
X111890538Y-100330578D01*
X111897362Y-100326542D01*
X111911683Y-100312221D01*
X111926717Y-100299380D01*
X111936694Y-100292131D01*
X111943107Y-100287472D01*
X111971298Y-100253395D01*
X111979288Y-100244616D01*
X112808085Y-99415819D01*
X112870397Y-99381793D01*
X112941212Y-99386858D01*
G37*
%TD.AperFunction*%
%TA.AperFunction,NonConductor*%
G36*
X124832727Y-101785502D02*
G01*
X124867819Y-101819229D01*
X124972250Y-101968371D01*
X124977802Y-101976300D01*
X125139700Y-102138198D01*
X125144208Y-102141355D01*
X125144211Y-102141357D01*
X125222389Y-102196098D01*
X125327251Y-102269523D01*
X125332233Y-102271846D01*
X125332238Y-102271849D01*
X125529775Y-102363961D01*
X125534757Y-102366284D01*
X125540065Y-102367706D01*
X125540067Y-102367707D01*
X125750598Y-102424119D01*
X125750600Y-102424119D01*
X125755913Y-102425543D01*
X125984000Y-102445498D01*
X126212087Y-102425543D01*
X126217400Y-102424119D01*
X126217402Y-102424119D01*
X126427933Y-102367707D01*
X126427935Y-102367706D01*
X126433243Y-102366284D01*
X126438225Y-102363961D01*
X126635762Y-102271849D01*
X126635767Y-102271846D01*
X126640749Y-102269523D01*
X126745611Y-102196098D01*
X126823789Y-102141357D01*
X126823792Y-102141355D01*
X126828300Y-102138198D01*
X126990198Y-101976300D01*
X126995750Y-101968371D01*
X127007935Y-101950970D01*
X127063392Y-101906642D01*
X127134012Y-101899334D01*
X127200242Y-101934147D01*
X128025348Y-102759253D01*
X128032888Y-102767539D01*
X128037000Y-102774018D01*
X128042777Y-102779443D01*
X128086651Y-102820643D01*
X128089493Y-102823398D01*
X128109230Y-102843135D01*
X128112427Y-102845615D01*
X128121447Y-102853318D01*
X128153679Y-102883586D01*
X128160625Y-102887405D01*
X128160628Y-102887407D01*
X128171434Y-102893348D01*
X128187953Y-102904199D01*
X128203959Y-102916614D01*
X128211228Y-102919759D01*
X128211232Y-102919762D01*
X128244537Y-102934174D01*
X128255187Y-102939391D01*
X128293940Y-102960695D01*
X128301615Y-102962666D01*
X128301616Y-102962666D01*
X128313562Y-102965733D01*
X128332266Y-102972137D01*
X128334291Y-102973013D01*
X128350855Y-102980181D01*
X128358678Y-102981420D01*
X128358688Y-102981423D01*
X128394524Y-102987099D01*
X128406144Y-102989505D01*
X128441250Y-102998518D01*
X128448970Y-103000500D01*
X128469224Y-103000500D01*
X128488934Y-103002051D01*
X128508943Y-103005220D01*
X128516835Y-103004474D01*
X128552961Y-103001059D01*
X128564819Y-103000500D01*
X130296274Y-103000500D01*
X130364395Y-103020502D01*
X130403707Y-103060665D01*
X130471987Y-103172088D01*
X130618250Y-103340938D01*
X130622230Y-103344242D01*
X130626981Y-103348187D01*
X130666616Y-103407090D01*
X130668113Y-103478071D01*
X130630997Y-103538593D01*
X130590725Y-103563112D01*
X130494751Y-103599091D01*
X130475295Y-103606385D01*
X130358739Y-103693739D01*
X130271385Y-103810295D01*
X130220255Y-103946684D01*
X130213500Y-104008866D01*
X130213500Y-104147500D01*
X130193498Y-104215621D01*
X130139842Y-104262114D01*
X130087500Y-104273500D01*
X128597768Y-104273500D01*
X128586585Y-104272973D01*
X128579092Y-104271298D01*
X128571166Y-104271547D01*
X128571165Y-104271547D01*
X128511002Y-104273438D01*
X128507044Y-104273500D01*
X128479144Y-104273500D01*
X128475154Y-104274004D01*
X128463320Y-104274936D01*
X128419111Y-104276326D01*
X128411495Y-104278539D01*
X128411493Y-104278539D01*
X128399652Y-104281979D01*
X128380293Y-104285988D01*
X128378983Y-104286154D01*
X128360203Y-104288526D01*
X128352837Y-104291442D01*
X128352831Y-104291444D01*
X128319098Y-104304800D01*
X128307868Y-104308645D01*
X128273017Y-104318770D01*
X128265407Y-104320981D01*
X128258584Y-104325016D01*
X128247966Y-104331295D01*
X128230213Y-104339992D01*
X128222568Y-104343019D01*
X128211383Y-104347448D01*
X128204968Y-104352109D01*
X128175612Y-104373437D01*
X128165695Y-104379951D01*
X128127638Y-104402458D01*
X128113317Y-104416779D01*
X128098284Y-104429619D01*
X128081893Y-104441528D01*
X128076843Y-104447632D01*
X128076838Y-104447637D01*
X128053707Y-104475598D01*
X128045717Y-104484379D01*
X127200241Y-105329854D01*
X127137929Y-105363879D01*
X127067113Y-105358814D01*
X127007932Y-105313027D01*
X126993359Y-105292213D01*
X126993353Y-105292206D01*
X126990198Y-105287700D01*
X126828300Y-105125802D01*
X126823792Y-105122645D01*
X126823789Y-105122643D01*
X126745611Y-105067902D01*
X126640749Y-104994477D01*
X126635767Y-104992154D01*
X126635762Y-104992151D01*
X126438225Y-104900039D01*
X126438224Y-104900039D01*
X126433243Y-104897716D01*
X126427935Y-104896294D01*
X126427933Y-104896293D01*
X126217402Y-104839881D01*
X126217400Y-104839881D01*
X126212087Y-104838457D01*
X125984000Y-104818502D01*
X125755913Y-104838457D01*
X125750600Y-104839881D01*
X125750598Y-104839881D01*
X125540067Y-104896293D01*
X125540065Y-104896294D01*
X125534757Y-104897716D01*
X125529776Y-104900039D01*
X125529775Y-104900039D01*
X125332238Y-104992151D01*
X125332233Y-104992154D01*
X125327251Y-104994477D01*
X125222389Y-105067902D01*
X125144211Y-105122643D01*
X125144208Y-105122645D01*
X125139700Y-105125802D01*
X124977802Y-105287700D01*
X124846477Y-105475251D01*
X124844154Y-105480233D01*
X124844151Y-105480238D01*
X124825695Y-105519818D01*
X124778778Y-105573103D01*
X124710500Y-105592564D01*
X124642540Y-105572022D01*
X124596475Y-105517999D01*
X124585500Y-105466568D01*
X124585500Y-101914595D01*
X124605502Y-101846474D01*
X124622406Y-101825498D01*
X124645502Y-101802403D01*
X124707815Y-101768379D01*
X124734596Y-101765500D01*
X124764606Y-101765500D01*
X124832727Y-101785502D01*
G37*
%TD.AperFunction*%
%TA.AperFunction,NonConductor*%
G36*
X132304018Y-98300000D02*
G01*
X132318852Y-98302310D01*
X132318855Y-98302310D01*
X132327724Y-98303691D01*
X132336626Y-98302527D01*
X132336750Y-98302511D01*
X132367192Y-98302240D01*
X132399012Y-98305825D01*
X132432825Y-98309635D01*
X132460327Y-98315912D01*
X132540798Y-98344070D01*
X132566214Y-98356310D01*
X132638404Y-98401670D01*
X132660462Y-98419262D01*
X132720738Y-98479538D01*
X132738329Y-98501595D01*
X132783458Y-98573415D01*
X132783690Y-98573785D01*
X132795930Y-98599202D01*
X132824088Y-98679673D01*
X132830365Y-98707176D01*
X132837018Y-98766226D01*
X132836923Y-98781868D01*
X132837800Y-98781879D01*
X132837690Y-98790851D01*
X132836309Y-98799724D01*
X132837473Y-98808626D01*
X132837473Y-98808628D01*
X132840436Y-98831283D01*
X132841500Y-98847621D01*
X132841500Y-101417828D01*
X132821498Y-101485949D01*
X132767842Y-101532442D01*
X132697568Y-101542546D01*
X132632988Y-101513052D01*
X132622307Y-101502628D01*
X132505152Y-101373876D01*
X132505142Y-101373867D01*
X132501670Y-101370051D01*
X132497619Y-101366852D01*
X132497615Y-101366848D01*
X132330414Y-101234800D01*
X132330410Y-101234798D01*
X132326359Y-101231598D01*
X132299187Y-101216598D01*
X132272039Y-101201612D01*
X132130789Y-101123638D01*
X132125920Y-101121914D01*
X132125916Y-101121912D01*
X131925087Y-101050795D01*
X131925083Y-101050794D01*
X131920212Y-101049069D01*
X131915119Y-101048162D01*
X131915116Y-101048161D01*
X131705373Y-101010800D01*
X131705367Y-101010799D01*
X131700284Y-101009894D01*
X131626452Y-101008992D01*
X131482081Y-101007228D01*
X131482079Y-101007228D01*
X131476911Y-101007165D01*
X131256091Y-101040955D01*
X131043756Y-101110357D01*
X131013443Y-101126137D01*
X130886870Y-101192027D01*
X130845607Y-101213507D01*
X130841474Y-101216610D01*
X130841471Y-101216612D01*
X130671100Y-101344530D01*
X130666965Y-101347635D01*
X130641291Y-101374501D01*
X130530535Y-101490401D01*
X130512629Y-101509138D01*
X130509715Y-101513410D01*
X130509714Y-101513411D01*
X130397095Y-101678504D01*
X130342184Y-101723507D01*
X130293007Y-101733500D01*
X128843594Y-101733500D01*
X128775473Y-101713498D01*
X128754503Y-101696599D01*
X127797641Y-100739736D01*
X127790112Y-100731462D01*
X127786000Y-100724982D01*
X127736348Y-100678356D01*
X127733507Y-100675602D01*
X127713770Y-100655865D01*
X127710573Y-100653385D01*
X127701551Y-100645680D01*
X127688122Y-100633069D01*
X127669321Y-100615414D01*
X127662375Y-100611595D01*
X127662372Y-100611593D01*
X127651566Y-100605652D01*
X127635047Y-100594801D01*
X127634583Y-100594441D01*
X127619041Y-100582386D01*
X127611772Y-100579241D01*
X127611768Y-100579238D01*
X127578463Y-100564826D01*
X127567813Y-100559609D01*
X127529060Y-100538305D01*
X127509437Y-100533267D01*
X127490734Y-100526863D01*
X127479420Y-100521967D01*
X127479419Y-100521967D01*
X127472145Y-100518819D01*
X127464322Y-100517580D01*
X127464312Y-100517577D01*
X127428476Y-100511901D01*
X127416856Y-100509495D01*
X127381711Y-100500472D01*
X127381710Y-100500472D01*
X127374030Y-100498500D01*
X127353776Y-100498500D01*
X127334065Y-100496949D01*
X127321886Y-100495020D01*
X127314057Y-100493780D01*
X127284786Y-100496547D01*
X127270039Y-100497941D01*
X127258181Y-100498500D01*
X127203394Y-100498500D01*
X127135273Y-100478498D01*
X127100181Y-100444771D01*
X126993357Y-100292211D01*
X126993355Y-100292208D01*
X126990198Y-100287700D01*
X126828300Y-100125802D01*
X126823792Y-100122645D01*
X126823789Y-100122643D01*
X126713477Y-100045402D01*
X126640749Y-99994477D01*
X126635767Y-99992154D01*
X126635762Y-99992151D01*
X126438225Y-99900039D01*
X126438224Y-99900039D01*
X126433243Y-99897716D01*
X126427935Y-99896294D01*
X126427933Y-99896293D01*
X126217402Y-99839881D01*
X126217400Y-99839881D01*
X126212087Y-99838457D01*
X125984000Y-99818502D01*
X125755913Y-99838457D01*
X125750600Y-99839881D01*
X125750598Y-99839881D01*
X125540067Y-99896293D01*
X125540065Y-99896294D01*
X125534757Y-99897716D01*
X125529776Y-99900039D01*
X125529775Y-99900039D01*
X125332238Y-99992151D01*
X125332233Y-99992154D01*
X125327251Y-99994477D01*
X125254523Y-100045402D01*
X125144211Y-100122643D01*
X125144208Y-100122645D01*
X125139700Y-100125802D01*
X124977802Y-100287700D01*
X124974645Y-100292208D01*
X124974643Y-100292211D01*
X124867819Y-100444771D01*
X124812362Y-100489099D01*
X124764606Y-100498500D01*
X124498767Y-100498500D01*
X124487584Y-100497973D01*
X124480091Y-100496298D01*
X124472165Y-100496547D01*
X124472164Y-100496547D01*
X124412001Y-100498438D01*
X124408043Y-100498500D01*
X124380144Y-100498500D01*
X124376154Y-100499004D01*
X124364320Y-100499936D01*
X124320111Y-100501326D01*
X124312497Y-100503538D01*
X124312492Y-100503539D01*
X124300659Y-100506977D01*
X124281296Y-100510988D01*
X124261203Y-100513526D01*
X124253836Y-100516443D01*
X124253831Y-100516444D01*
X124220092Y-100529802D01*
X124208865Y-100533646D01*
X124166407Y-100545982D01*
X124159581Y-100550019D01*
X124148972Y-100556293D01*
X124131224Y-100564988D01*
X124112383Y-100572448D01*
X124105967Y-100577110D01*
X124105966Y-100577110D01*
X124076613Y-100598436D01*
X124066693Y-100604952D01*
X124035465Y-100623420D01*
X124035462Y-100623422D01*
X124028638Y-100627458D01*
X124014317Y-100641779D01*
X123999284Y-100654619D01*
X123982893Y-100666528D01*
X123956516Y-100698413D01*
X123954712Y-100700593D01*
X123946722Y-100709374D01*
X123559742Y-101096353D01*
X123551463Y-101103887D01*
X123544982Y-101108000D01*
X123511773Y-101143364D01*
X123498357Y-101157651D01*
X123495602Y-101160493D01*
X123475865Y-101180230D01*
X123473385Y-101183427D01*
X123465682Y-101192447D01*
X123435414Y-101224679D01*
X123431595Y-101231625D01*
X123431593Y-101231628D01*
X123425652Y-101242434D01*
X123414801Y-101258953D01*
X123402386Y-101274959D01*
X123399241Y-101282228D01*
X123399238Y-101282232D01*
X123384826Y-101315537D01*
X123379609Y-101326187D01*
X123358305Y-101364940D01*
X123356334Y-101372615D01*
X123356334Y-101372616D01*
X123353267Y-101384562D01*
X123346863Y-101403266D01*
X123338819Y-101421855D01*
X123337580Y-101429678D01*
X123337577Y-101429688D01*
X123331901Y-101465524D01*
X123329495Y-101477144D01*
X123321281Y-101509138D01*
X123318500Y-101519970D01*
X123318500Y-101540224D01*
X123316949Y-101559934D01*
X123313780Y-101579943D01*
X123314526Y-101587835D01*
X123317941Y-101623961D01*
X123318500Y-101635819D01*
X123318500Y-106619405D01*
X123298498Y-106687526D01*
X123281595Y-106708500D01*
X123228493Y-106761602D01*
X123166181Y-106795628D01*
X123095366Y-106790563D01*
X123036186Y-106744779D01*
X122936303Y-106602131D01*
X122929357Y-106592211D01*
X122929355Y-106592208D01*
X122926198Y-106587700D01*
X122764300Y-106425802D01*
X122759792Y-106422645D01*
X122759789Y-106422643D01*
X122681611Y-106367902D01*
X122576749Y-106294477D01*
X122571767Y-106292154D01*
X122571762Y-106292151D01*
X122374225Y-106200039D01*
X122374224Y-106200039D01*
X122369243Y-106197716D01*
X122363935Y-106196294D01*
X122363933Y-106196293D01*
X122153402Y-106139881D01*
X122153400Y-106139881D01*
X122148087Y-106138457D01*
X121920000Y-106118502D01*
X121691913Y-106138457D01*
X121686600Y-106139881D01*
X121686598Y-106139881D01*
X121476067Y-106196293D01*
X121476065Y-106196294D01*
X121470757Y-106197716D01*
X121465776Y-106200039D01*
X121465775Y-106200039D01*
X121268238Y-106292151D01*
X121268233Y-106292154D01*
X121263251Y-106294477D01*
X121158389Y-106367902D01*
X121080211Y-106422643D01*
X121080208Y-106422645D01*
X121075700Y-106425802D01*
X120913802Y-106587700D01*
X120910645Y-106592208D01*
X120910643Y-106592211D01*
X120903697Y-106602131D01*
X120782477Y-106775251D01*
X120780154Y-106780233D01*
X120780151Y-106780238D01*
X120764195Y-106814457D01*
X120717278Y-106867742D01*
X120649001Y-106887203D01*
X120581041Y-106866661D01*
X120535805Y-106814457D01*
X120519849Y-106780238D01*
X120519846Y-106780233D01*
X120517523Y-106775251D01*
X120396303Y-106602131D01*
X120389357Y-106592211D01*
X120389355Y-106592208D01*
X120386198Y-106587700D01*
X120224300Y-106425802D01*
X120219792Y-106422645D01*
X120219789Y-106422643D01*
X120141611Y-106367902D01*
X120036749Y-106294477D01*
X120031767Y-106292154D01*
X120031762Y-106292151D01*
X119834225Y-106200039D01*
X119834224Y-106200039D01*
X119829243Y-106197716D01*
X119823935Y-106196294D01*
X119823933Y-106196293D01*
X119613402Y-106139881D01*
X119613400Y-106139881D01*
X119608087Y-106138457D01*
X119380000Y-106118502D01*
X119151913Y-106138457D01*
X119146600Y-106139881D01*
X119146598Y-106139881D01*
X118936067Y-106196293D01*
X118936065Y-106196294D01*
X118930757Y-106197716D01*
X118925776Y-106200039D01*
X118925775Y-106200039D01*
X118728238Y-106292151D01*
X118728233Y-106292154D01*
X118723251Y-106294477D01*
X118618389Y-106367902D01*
X118540211Y-106422643D01*
X118540208Y-106422645D01*
X118535700Y-106425802D01*
X118373802Y-106587700D01*
X118370645Y-106592208D01*
X118370643Y-106592211D01*
X118256817Y-106754771D01*
X118201360Y-106799099D01*
X118153604Y-106808500D01*
X118066396Y-106808500D01*
X117998275Y-106788498D01*
X117963183Y-106754771D01*
X117849357Y-106592211D01*
X117849355Y-106592208D01*
X117846198Y-106587700D01*
X117684300Y-106425802D01*
X117679792Y-106422645D01*
X117679789Y-106422643D01*
X117601611Y-106367902D01*
X117496749Y-106294477D01*
X117491767Y-106292154D01*
X117491762Y-106292151D01*
X117294225Y-106200039D01*
X117294224Y-106200039D01*
X117289243Y-106197716D01*
X117283935Y-106196294D01*
X117283933Y-106196293D01*
X117073402Y-106139881D01*
X117073400Y-106139881D01*
X117068087Y-106138457D01*
X116840000Y-106118502D01*
X116611913Y-106138457D01*
X116606600Y-106139881D01*
X116606598Y-106139881D01*
X116396067Y-106196293D01*
X116396065Y-106196294D01*
X116390757Y-106197716D01*
X116385776Y-106200039D01*
X116385775Y-106200039D01*
X116188238Y-106292151D01*
X116188233Y-106292154D01*
X116183251Y-106294477D01*
X116078389Y-106367902D01*
X116000211Y-106422643D01*
X116000208Y-106422645D01*
X115995700Y-106425802D01*
X115833802Y-106587700D01*
X115830643Y-106592211D01*
X115827108Y-106596424D01*
X115825974Y-106595473D01*
X115775929Y-106635471D01*
X115705310Y-106642776D01*
X115641951Y-106610742D01*
X115605970Y-106549538D01*
X115602918Y-106532483D01*
X115601745Y-106521684D01*
X115550615Y-106385295D01*
X115463261Y-106268739D01*
X115346705Y-106181385D01*
X115210316Y-106130255D01*
X115148134Y-106123500D01*
X113451866Y-106123500D01*
X113389684Y-106130255D01*
X113253295Y-106181385D01*
X113136739Y-106268739D01*
X113049385Y-106385295D01*
X112998255Y-106521684D01*
X112991500Y-106583866D01*
X112991500Y-107727405D01*
X112971498Y-107795526D01*
X112917842Y-107842019D01*
X112847568Y-107852123D01*
X112782988Y-107822629D01*
X112776405Y-107816500D01*
X111999652Y-107039747D01*
X111992112Y-107031461D01*
X111988000Y-107024982D01*
X111938348Y-106978356D01*
X111935507Y-106975602D01*
X111915770Y-106955865D01*
X111912573Y-106953385D01*
X111903551Y-106945680D01*
X111877100Y-106920841D01*
X111871321Y-106915414D01*
X111864375Y-106911595D01*
X111864372Y-106911593D01*
X111853566Y-106905652D01*
X111837047Y-106894801D01*
X111836583Y-106894441D01*
X111821041Y-106882386D01*
X111813772Y-106879241D01*
X111813768Y-106879238D01*
X111780463Y-106864826D01*
X111769813Y-106859609D01*
X111731060Y-106838305D01*
X111711437Y-106833267D01*
X111692734Y-106826863D01*
X111681420Y-106821967D01*
X111681419Y-106821967D01*
X111674145Y-106818819D01*
X111666322Y-106817580D01*
X111666312Y-106817577D01*
X111630476Y-106811901D01*
X111618856Y-106809495D01*
X111583711Y-106800472D01*
X111583710Y-106800472D01*
X111576030Y-106798500D01*
X111555776Y-106798500D01*
X111536065Y-106796949D01*
X111523886Y-106795020D01*
X111516057Y-106793780D01*
X111477424Y-106797432D01*
X111472039Y-106797941D01*
X111460181Y-106798500D01*
X108164500Y-106798500D01*
X108096379Y-106778498D01*
X108049886Y-106724842D01*
X108038500Y-106672500D01*
X108038500Y-106533866D01*
X108031745Y-106471684D01*
X107980615Y-106335295D01*
X107893261Y-106218739D01*
X107776705Y-106131385D01*
X107747032Y-106120261D01*
X107658203Y-106086960D01*
X107601439Y-106044318D01*
X107576739Y-105977756D01*
X107591947Y-105908408D01*
X107613493Y-105879727D01*
X107624015Y-105869242D01*
X107718096Y-105775489D01*
X107777594Y-105692689D01*
X107845435Y-105598277D01*
X107848453Y-105594077D01*
X107873510Y-105543379D01*
X107945136Y-105398453D01*
X107945137Y-105398451D01*
X107947430Y-105393811D01*
X108012370Y-105180069D01*
X108041529Y-104958590D01*
X108042960Y-104900039D01*
X108043074Y-104895365D01*
X108043074Y-104895361D01*
X108043156Y-104892000D01*
X108024852Y-104669361D01*
X107970431Y-104452702D01*
X107881354Y-104247840D01*
X107760014Y-104060277D01*
X107609670Y-103895051D01*
X107605619Y-103891852D01*
X107605615Y-103891848D01*
X107438414Y-103759800D01*
X107438410Y-103759798D01*
X107434359Y-103756598D01*
X107393053Y-103733796D01*
X107343084Y-103683364D01*
X107328312Y-103613921D01*
X107353428Y-103547516D01*
X107380780Y-103520909D01*
X107440837Y-103478071D01*
X107559860Y-103393173D01*
X107605004Y-103348187D01*
X107707342Y-103246205D01*
X107718096Y-103235489D01*
X107746396Y-103196106D01*
X107845435Y-103058277D01*
X107848453Y-103054077D01*
X107850746Y-103049437D01*
X107852446Y-103046608D01*
X107904674Y-102998518D01*
X107960451Y-102985500D01*
X118549233Y-102985500D01*
X118560416Y-102986027D01*
X118567909Y-102987702D01*
X118575835Y-102987453D01*
X118575836Y-102987453D01*
X118635986Y-102985562D01*
X118639945Y-102985500D01*
X118667856Y-102985500D01*
X118671791Y-102985003D01*
X118671856Y-102984995D01*
X118683693Y-102984062D01*
X118715951Y-102983048D01*
X118719970Y-102982922D01*
X118727889Y-102982673D01*
X118747343Y-102977021D01*
X118766700Y-102973013D01*
X118778930Y-102971468D01*
X118778931Y-102971468D01*
X118786797Y-102970474D01*
X118794168Y-102967555D01*
X118794170Y-102967555D01*
X118827912Y-102954196D01*
X118839142Y-102950351D01*
X118873983Y-102940229D01*
X118873984Y-102940229D01*
X118881593Y-102938018D01*
X118888412Y-102933985D01*
X118888417Y-102933983D01*
X118899028Y-102927707D01*
X118916776Y-102919012D01*
X118935617Y-102911552D01*
X118954104Y-102898121D01*
X118971387Y-102885564D01*
X118981307Y-102879048D01*
X119012535Y-102860580D01*
X119012538Y-102860578D01*
X119019362Y-102856542D01*
X119033683Y-102842221D01*
X119048717Y-102829380D01*
X119065107Y-102817472D01*
X119093298Y-102783395D01*
X119101288Y-102774616D01*
X119772247Y-102103657D01*
X119780537Y-102096113D01*
X119787018Y-102092000D01*
X119833659Y-102042332D01*
X119836413Y-102039491D01*
X119856135Y-102019769D01*
X119858612Y-102016576D01*
X119866317Y-102007555D01*
X119891159Y-101981100D01*
X119896586Y-101975321D01*
X119900407Y-101968371D01*
X119906346Y-101957568D01*
X119917202Y-101941041D01*
X119924757Y-101931302D01*
X119924758Y-101931300D01*
X119929614Y-101925040D01*
X119947174Y-101884460D01*
X119952391Y-101873812D01*
X119969875Y-101842009D01*
X119969876Y-101842007D01*
X119973695Y-101835060D01*
X119978733Y-101815437D01*
X119985137Y-101796734D01*
X119990033Y-101785420D01*
X119990033Y-101785419D01*
X119993181Y-101778145D01*
X119994420Y-101770322D01*
X119994423Y-101770312D01*
X120000099Y-101734476D01*
X120002505Y-101722856D01*
X120011528Y-101687711D01*
X120011528Y-101687710D01*
X120013500Y-101680030D01*
X120013500Y-101659776D01*
X120015051Y-101640065D01*
X120016980Y-101627886D01*
X120018220Y-101620057D01*
X120014059Y-101576038D01*
X120013500Y-101564181D01*
X120013500Y-101031394D01*
X120033502Y-100963273D01*
X120067229Y-100928181D01*
X120219789Y-100821357D01*
X120219792Y-100821355D01*
X120224300Y-100818198D01*
X120386198Y-100656300D01*
X120391455Y-100648793D01*
X120463444Y-100545982D01*
X120517523Y-100468749D01*
X120519846Y-100463767D01*
X120519849Y-100463762D01*
X120535805Y-100429543D01*
X120582722Y-100376258D01*
X120650999Y-100356797D01*
X120718959Y-100377339D01*
X120764195Y-100429543D01*
X120780151Y-100463762D01*
X120780154Y-100463767D01*
X120782477Y-100468749D01*
X120836556Y-100545982D01*
X120908546Y-100648793D01*
X120913802Y-100656300D01*
X121075700Y-100818198D01*
X121080208Y-100821355D01*
X121080211Y-100821357D01*
X121120445Y-100849529D01*
X121263251Y-100949523D01*
X121268233Y-100951846D01*
X121268238Y-100951849D01*
X121421068Y-101023114D01*
X121470757Y-101046284D01*
X121476065Y-101047706D01*
X121476067Y-101047707D01*
X121686598Y-101104119D01*
X121686600Y-101104119D01*
X121691913Y-101105543D01*
X121920000Y-101125498D01*
X122148087Y-101105543D01*
X122153400Y-101104119D01*
X122153402Y-101104119D01*
X122363933Y-101047707D01*
X122363935Y-101047706D01*
X122369243Y-101046284D01*
X122418932Y-101023114D01*
X122571762Y-100951849D01*
X122571767Y-100951846D01*
X122576749Y-100949523D01*
X122719555Y-100849529D01*
X122759789Y-100821357D01*
X122759792Y-100821355D01*
X122764300Y-100818198D01*
X122926198Y-100656300D01*
X122931455Y-100648793D01*
X123003444Y-100545982D01*
X123057523Y-100468749D01*
X123059846Y-100463767D01*
X123059849Y-100463762D01*
X123151961Y-100266225D01*
X123151961Y-100266224D01*
X123154284Y-100261243D01*
X123164150Y-100224425D01*
X123212119Y-100045402D01*
X123212119Y-100045400D01*
X123213543Y-100040087D01*
X123233498Y-99812000D01*
X123213543Y-99583913D01*
X123207593Y-99561707D01*
X123155707Y-99368067D01*
X123155706Y-99368065D01*
X123154284Y-99362757D01*
X123075805Y-99194457D01*
X123059849Y-99160238D01*
X123059846Y-99160233D01*
X123057523Y-99155251D01*
X122984098Y-99050389D01*
X122929357Y-98972211D01*
X122929355Y-98972208D01*
X122926198Y-98967700D01*
X122764300Y-98805802D01*
X122759792Y-98802645D01*
X122759789Y-98802643D01*
X122623446Y-98707175D01*
X122576749Y-98674477D01*
X122571767Y-98672154D01*
X122571762Y-98672151D01*
X122374225Y-98580039D01*
X122374224Y-98580039D01*
X122369243Y-98577716D01*
X122251649Y-98546207D01*
X122191028Y-98509255D01*
X122160006Y-98445394D01*
X122168435Y-98374900D01*
X122213638Y-98320153D01*
X122284262Y-98298500D01*
X132284633Y-98298500D01*
X132304018Y-98300000D01*
G37*
%TD.AperFunction*%
%TA.AperFunction,NonConductor*%
G36*
X120718959Y-107997339D02*
G01*
X120764195Y-108049543D01*
X120780151Y-108083762D01*
X120780154Y-108083767D01*
X120782477Y-108088749D01*
X120913802Y-108276300D01*
X121075700Y-108438198D01*
X121080208Y-108441355D01*
X121080211Y-108441357D01*
X121140522Y-108483587D01*
X121263251Y-108569523D01*
X121268233Y-108571846D01*
X121268238Y-108571849D01*
X121437212Y-108650642D01*
X121470757Y-108666284D01*
X121476065Y-108667706D01*
X121476067Y-108667707D01*
X121662990Y-108717793D01*
X121723613Y-108754745D01*
X121754634Y-108818606D01*
X121746206Y-108889100D01*
X121701003Y-108943847D01*
X121630379Y-108965500D01*
X119669621Y-108965500D01*
X119601500Y-108945498D01*
X119555007Y-108891842D01*
X119544903Y-108821568D01*
X119574397Y-108756988D01*
X119637010Y-108717793D01*
X119823933Y-108667707D01*
X119823935Y-108667706D01*
X119829243Y-108666284D01*
X119862788Y-108650642D01*
X120031762Y-108571849D01*
X120031767Y-108571846D01*
X120036749Y-108569523D01*
X120159478Y-108483587D01*
X120219789Y-108441357D01*
X120219792Y-108441355D01*
X120224300Y-108438198D01*
X120386198Y-108276300D01*
X120517523Y-108088749D01*
X120519846Y-108083767D01*
X120519849Y-108083762D01*
X120535805Y-108049543D01*
X120582722Y-107996258D01*
X120650999Y-107976797D01*
X120718959Y-107997339D01*
G37*
%TD.AperFunction*%
%TA.AperFunction,NonConductor*%
G36*
X118235729Y-108095502D02*
G01*
X118270821Y-108129229D01*
X118373802Y-108276300D01*
X118535700Y-108438198D01*
X118540208Y-108441355D01*
X118540211Y-108441357D01*
X118600522Y-108483587D01*
X118723251Y-108569523D01*
X118728233Y-108571846D01*
X118728238Y-108571849D01*
X118897212Y-108650642D01*
X118930757Y-108666284D01*
X118936065Y-108667706D01*
X118936067Y-108667707D01*
X119122990Y-108717793D01*
X119183613Y-108754745D01*
X119214634Y-108818606D01*
X119206206Y-108889100D01*
X119161003Y-108943847D01*
X119090379Y-108965500D01*
X117129621Y-108965500D01*
X117061500Y-108945498D01*
X117015007Y-108891842D01*
X117004903Y-108821568D01*
X117034397Y-108756988D01*
X117097010Y-108717793D01*
X117283933Y-108667707D01*
X117283935Y-108667706D01*
X117289243Y-108666284D01*
X117322788Y-108650642D01*
X117491762Y-108571849D01*
X117491767Y-108571846D01*
X117496749Y-108569523D01*
X117619478Y-108483587D01*
X117679789Y-108441357D01*
X117679792Y-108441355D01*
X117684300Y-108438198D01*
X117846198Y-108276300D01*
X117949179Y-108129229D01*
X118004636Y-108084901D01*
X118052392Y-108075500D01*
X118167608Y-108075500D01*
X118235729Y-108095502D01*
G37*
%TD.AperFunction*%
%TA.AperFunction,NonConductor*%
G36*
X111249527Y-108085502D02*
G01*
X111270501Y-108102405D01*
X111918501Y-108750405D01*
X111952527Y-108812717D01*
X111947462Y-108883532D01*
X111904915Y-108940368D01*
X111838395Y-108965179D01*
X111829406Y-108965500D01*
X107841203Y-108965500D01*
X107773082Y-108945498D01*
X107726589Y-108891842D01*
X107716485Y-108821568D01*
X107745979Y-108756988D01*
X107775742Y-108732976D01*
X107776705Y-108732615D01*
X107783884Y-108727235D01*
X107783887Y-108727233D01*
X107886081Y-108650642D01*
X107893261Y-108645261D01*
X107980615Y-108528705D01*
X108031745Y-108392316D01*
X108038500Y-108330134D01*
X108038500Y-108191500D01*
X108058502Y-108123379D01*
X108112158Y-108076886D01*
X108164500Y-108065500D01*
X111181406Y-108065500D01*
X111249527Y-108085502D01*
G37*
%TD.AperFunction*%
%TA.AperFunction,NonConductor*%
G36*
X130155621Y-105560502D02*
G01*
X130202114Y-105614158D01*
X130213500Y-105666500D01*
X130213500Y-105805134D01*
X130220255Y-105867316D01*
X130271385Y-106003705D01*
X130358739Y-106120261D01*
X130475295Y-106207615D01*
X130611684Y-106258745D01*
X130673866Y-106265500D01*
X132470134Y-106265500D01*
X132532316Y-106258745D01*
X132668705Y-106207615D01*
X132669764Y-106210440D01*
X132724360Y-106198505D01*
X132790906Y-106223248D01*
X132833511Y-106280040D01*
X132841500Y-106324193D01*
X132841500Y-108408633D01*
X132840000Y-108428018D01*
X132836309Y-108451724D01*
X132837473Y-108460626D01*
X132837489Y-108460750D01*
X132837760Y-108491193D01*
X132830365Y-108556825D01*
X132824088Y-108584327D01*
X132795930Y-108664798D01*
X132783690Y-108690214D01*
X132741733Y-108756988D01*
X132738330Y-108762404D01*
X132720738Y-108784462D01*
X132660462Y-108844738D01*
X132638405Y-108862329D01*
X132591437Y-108891842D01*
X132566215Y-108907690D01*
X132540798Y-108919930D01*
X132460327Y-108948088D01*
X132432824Y-108954365D01*
X132373774Y-108961018D01*
X132358132Y-108960923D01*
X132358121Y-108961800D01*
X132349149Y-108961690D01*
X132340276Y-108960309D01*
X132331374Y-108961473D01*
X132331372Y-108961473D01*
X132320385Y-108962910D01*
X132308714Y-108964436D01*
X132292379Y-108965500D01*
X122209621Y-108965500D01*
X122141500Y-108945498D01*
X122095007Y-108891842D01*
X122084903Y-108821568D01*
X122114397Y-108756988D01*
X122177010Y-108717793D01*
X122363933Y-108667707D01*
X122363935Y-108667706D01*
X122369243Y-108666284D01*
X122402788Y-108650642D01*
X122571762Y-108571849D01*
X122571767Y-108571846D01*
X122576749Y-108569523D01*
X122699478Y-108483587D01*
X122759789Y-108441357D01*
X122759792Y-108441355D01*
X122764300Y-108438198D01*
X122926198Y-108276300D01*
X123029179Y-108129229D01*
X123084636Y-108084901D01*
X123132392Y-108075500D01*
X123365233Y-108075500D01*
X123376416Y-108076027D01*
X123383909Y-108077702D01*
X123391835Y-108077453D01*
X123391836Y-108077453D01*
X123451986Y-108075562D01*
X123455945Y-108075500D01*
X123483856Y-108075500D01*
X123487791Y-108075003D01*
X123487856Y-108074995D01*
X123499693Y-108074062D01*
X123531951Y-108073048D01*
X123535970Y-108072922D01*
X123543889Y-108072673D01*
X123563343Y-108067021D01*
X123582700Y-108063013D01*
X123594930Y-108061468D01*
X123594931Y-108061468D01*
X123602797Y-108060474D01*
X123610168Y-108057555D01*
X123610170Y-108057555D01*
X123643912Y-108044196D01*
X123655142Y-108040351D01*
X123689983Y-108030229D01*
X123689984Y-108030229D01*
X123697593Y-108028018D01*
X123704412Y-108023985D01*
X123704417Y-108023983D01*
X123715028Y-108017707D01*
X123732776Y-108009012D01*
X123751617Y-108001552D01*
X123787387Y-107975564D01*
X123797307Y-107969048D01*
X123828535Y-107950580D01*
X123828538Y-107950578D01*
X123835362Y-107946542D01*
X123849683Y-107932221D01*
X123864717Y-107919380D01*
X123874694Y-107912131D01*
X123881107Y-107907472D01*
X123909298Y-107873395D01*
X123917288Y-107864616D01*
X124344247Y-107437657D01*
X124352537Y-107430113D01*
X124359018Y-107426000D01*
X124405659Y-107376332D01*
X124408413Y-107373491D01*
X124428134Y-107353770D01*
X124430612Y-107350575D01*
X124438318Y-107341553D01*
X124463158Y-107315101D01*
X124468586Y-107309321D01*
X124478346Y-107291568D01*
X124489199Y-107275045D01*
X124496753Y-107265306D01*
X124501613Y-107259041D01*
X124519176Y-107218457D01*
X124524383Y-107207827D01*
X124545695Y-107169060D01*
X124547666Y-107161383D01*
X124547668Y-107161378D01*
X124550732Y-107149442D01*
X124557138Y-107130730D01*
X124562034Y-107119417D01*
X124565181Y-107112145D01*
X124572097Y-107068481D01*
X124574504Y-107056860D01*
X124583528Y-107021711D01*
X124583528Y-107021710D01*
X124585500Y-107014030D01*
X124585500Y-106993769D01*
X124587051Y-106974058D01*
X124587411Y-106971789D01*
X124590219Y-106954057D01*
X124586059Y-106910046D01*
X124585500Y-106898189D01*
X124585500Y-106797432D01*
X124605502Y-106729311D01*
X124659158Y-106682818D01*
X124729432Y-106672714D01*
X124794012Y-106702208D01*
X124825695Y-106744182D01*
X124844151Y-106783762D01*
X124844154Y-106783767D01*
X124846477Y-106788749D01*
X124898095Y-106862467D01*
X124965457Y-106958669D01*
X124977802Y-106976300D01*
X125139700Y-107138198D01*
X125144208Y-107141355D01*
X125144211Y-107141357D01*
X125155758Y-107149442D01*
X125327251Y-107269523D01*
X125332233Y-107271846D01*
X125332238Y-107271849D01*
X125501223Y-107350647D01*
X125534757Y-107366284D01*
X125540065Y-107367706D01*
X125540067Y-107367707D01*
X125750598Y-107424119D01*
X125750600Y-107424119D01*
X125755913Y-107425543D01*
X125984000Y-107445498D01*
X126212087Y-107425543D01*
X126217400Y-107424119D01*
X126217402Y-107424119D01*
X126427933Y-107367707D01*
X126427935Y-107367706D01*
X126433243Y-107366284D01*
X126466777Y-107350647D01*
X126635762Y-107271849D01*
X126635767Y-107271846D01*
X126640749Y-107269523D01*
X126812242Y-107149442D01*
X126823789Y-107141357D01*
X126823792Y-107141355D01*
X126828300Y-107138198D01*
X126990198Y-106976300D01*
X127000292Y-106961885D01*
X127100181Y-106819229D01*
X127155638Y-106774901D01*
X127203394Y-106765500D01*
X127215233Y-106765500D01*
X127226416Y-106766027D01*
X127233909Y-106767702D01*
X127241835Y-106767453D01*
X127241836Y-106767453D01*
X127301986Y-106765562D01*
X127305945Y-106765500D01*
X127333856Y-106765500D01*
X127337791Y-106765003D01*
X127337856Y-106764995D01*
X127349693Y-106764062D01*
X127381951Y-106763048D01*
X127385970Y-106762922D01*
X127393889Y-106762673D01*
X127413343Y-106757021D01*
X127432700Y-106753013D01*
X127444930Y-106751468D01*
X127444931Y-106751468D01*
X127452797Y-106750474D01*
X127460168Y-106747555D01*
X127460170Y-106747555D01*
X127493912Y-106734196D01*
X127505142Y-106730351D01*
X127539983Y-106720229D01*
X127539984Y-106720229D01*
X127547593Y-106718018D01*
X127554412Y-106713985D01*
X127554417Y-106713983D01*
X127565028Y-106707707D01*
X127582776Y-106699012D01*
X127601617Y-106691552D01*
X127637387Y-106665564D01*
X127647307Y-106659048D01*
X127678535Y-106640580D01*
X127678538Y-106640578D01*
X127685362Y-106636542D01*
X127699683Y-106622221D01*
X127714717Y-106609380D01*
X127724694Y-106602131D01*
X127731107Y-106597472D01*
X127759298Y-106563395D01*
X127767288Y-106554616D01*
X128744499Y-105577405D01*
X128806811Y-105543379D01*
X128833594Y-105540500D01*
X130087500Y-105540500D01*
X130155621Y-105560502D01*
G37*
%TD.AperFunction*%
%TA.AperFunction,NonConductor*%
G36*
X106214668Y-98318502D02*
G01*
X106261161Y-98372158D01*
X106271265Y-98442432D01*
X106241771Y-98507012D01*
X106185692Y-98544265D01*
X106151756Y-98555357D01*
X105953607Y-98658507D01*
X105949474Y-98661610D01*
X105949471Y-98661612D01*
X105779100Y-98789530D01*
X105774965Y-98792635D01*
X105620629Y-98954138D01*
X105617715Y-98958410D01*
X105617714Y-98958411D01*
X105608300Y-98972211D01*
X105494743Y-99138680D01*
X105400688Y-99341305D01*
X105340989Y-99556570D01*
X105317251Y-99778695D01*
X105317548Y-99783848D01*
X105317548Y-99783851D01*
X105329559Y-99992151D01*
X105330110Y-100001715D01*
X105331247Y-100006761D01*
X105331248Y-100006767D01*
X105339955Y-100045402D01*
X105379222Y-100219639D01*
X105434415Y-100355564D01*
X105443075Y-100376890D01*
X105463266Y-100426616D01*
X105495059Y-100478498D01*
X105576620Y-100611593D01*
X105579987Y-100617088D01*
X105726250Y-100785938D01*
X105898126Y-100928632D01*
X105952429Y-100960364D01*
X105971445Y-100971476D01*
X106020169Y-101023114D01*
X106033240Y-101092897D01*
X106006509Y-101158669D01*
X105966055Y-101192027D01*
X105953607Y-101198507D01*
X105949474Y-101201610D01*
X105949471Y-101201612D01*
X105797737Y-101315537D01*
X105774965Y-101332635D01*
X105771393Y-101336373D01*
X105628455Y-101485949D01*
X105620629Y-101494138D01*
X105617715Y-101498410D01*
X105617714Y-101498411D01*
X105602798Y-101520277D01*
X105494743Y-101678680D01*
X105454443Y-101765500D01*
X105409462Y-101862404D01*
X105400688Y-101881305D01*
X105340989Y-102096570D01*
X105317251Y-102318695D01*
X105317548Y-102323848D01*
X105317548Y-102323851D01*
X105323412Y-102425543D01*
X105330110Y-102541715D01*
X105331247Y-102546761D01*
X105331248Y-102546767D01*
X105355304Y-102653508D01*
X105379222Y-102759639D01*
X105431103Y-102887407D01*
X105456662Y-102950351D01*
X105463266Y-102966616D01*
X105579987Y-103157088D01*
X105726250Y-103325938D01*
X105898126Y-103468632D01*
X105914279Y-103478071D01*
X105971445Y-103511476D01*
X106020169Y-103563114D01*
X106033240Y-103632897D01*
X106006509Y-103698669D01*
X105966055Y-103732027D01*
X105953607Y-103738507D01*
X105949474Y-103741610D01*
X105949471Y-103741612D01*
X105779100Y-103869530D01*
X105774965Y-103872635D01*
X105771393Y-103876373D01*
X105644780Y-104008866D01*
X105620629Y-104034138D01*
X105494743Y-104218680D01*
X105465361Y-104281979D01*
X105432808Y-104352109D01*
X105400688Y-104421305D01*
X105340989Y-104636570D01*
X105317251Y-104858695D01*
X105317548Y-104863848D01*
X105317548Y-104863851D01*
X105323011Y-104958590D01*
X105330110Y-105081715D01*
X105331247Y-105086761D01*
X105331248Y-105086767D01*
X105351119Y-105174939D01*
X105379222Y-105299639D01*
X105463266Y-105506616D01*
X105471356Y-105519818D01*
X105561243Y-105666500D01*
X105579987Y-105697088D01*
X105726250Y-105865938D01*
X105730230Y-105869242D01*
X105734981Y-105873187D01*
X105774616Y-105932090D01*
X105776113Y-106003071D01*
X105738997Y-106063593D01*
X105698724Y-106088112D01*
X105583295Y-106131385D01*
X105466739Y-106218739D01*
X105379385Y-106335295D01*
X105328255Y-106471684D01*
X105321500Y-106533866D01*
X105321500Y-108330134D01*
X105328255Y-108392316D01*
X105379385Y-108528705D01*
X105466739Y-108645261D01*
X105473919Y-108650642D01*
X105576113Y-108727233D01*
X105576116Y-108727235D01*
X105583295Y-108732615D01*
X105583139Y-108732823D01*
X105629452Y-108779237D01*
X105644466Y-108848628D01*
X105619581Y-108915121D01*
X105562698Y-108957604D01*
X105518797Y-108965500D01*
X105459367Y-108965500D01*
X105439982Y-108964000D01*
X105425148Y-108961690D01*
X105425145Y-108961690D01*
X105416276Y-108960309D01*
X105407374Y-108961473D01*
X105407250Y-108961489D01*
X105376808Y-108961760D01*
X105339922Y-108957604D01*
X105311175Y-108954365D01*
X105283673Y-108948088D01*
X105203202Y-108919930D01*
X105177785Y-108907690D01*
X105152564Y-108891842D01*
X105105595Y-108862329D01*
X105083538Y-108844738D01*
X105023262Y-108784462D01*
X105005670Y-108762404D01*
X105002267Y-108756988D01*
X104960310Y-108690214D01*
X104948070Y-108664798D01*
X104919912Y-108584327D01*
X104913635Y-108556826D01*
X104911276Y-108535891D01*
X104907170Y-108499447D01*
X104906888Y-108474640D01*
X104907576Y-108470552D01*
X104907729Y-108458000D01*
X104903773Y-108430376D01*
X104902500Y-108412514D01*
X104902500Y-98859250D01*
X104904246Y-98838345D01*
X104906770Y-98823344D01*
X104906770Y-98823341D01*
X104907576Y-98818552D01*
X104907729Y-98806000D01*
X104907040Y-98801188D01*
X104906723Y-98796327D01*
X104907008Y-98796308D01*
X104906607Y-98769549D01*
X104913635Y-98707175D01*
X104919912Y-98679673D01*
X104948070Y-98599202D01*
X104960310Y-98573785D01*
X104960543Y-98573415D01*
X105005671Y-98501595D01*
X105023262Y-98479538D01*
X105083538Y-98419262D01*
X105105596Y-98401670D01*
X105177786Y-98356310D01*
X105203202Y-98344070D01*
X105283673Y-98315912D01*
X105311176Y-98309635D01*
X105370226Y-98302982D01*
X105385868Y-98303077D01*
X105385879Y-98302200D01*
X105394851Y-98302310D01*
X105403724Y-98303691D01*
X105412626Y-98302527D01*
X105412628Y-98302527D01*
X105427951Y-98300523D01*
X105435286Y-98299564D01*
X105451621Y-98298500D01*
X106146547Y-98298500D01*
X106214668Y-98318502D01*
G37*
%TD.AperFunction*%
M02*
