%TF.GenerationSoftware,KiCad,Pcbnew,(6.0.5-0)*%
%TF.CreationDate,2023-07-17T15:50:24+09:00*%
%TF.ProjectId,l9110h-1ch-driver,6c393131-3068-42d3-9163-682d64726976,rev?*%
%TF.SameCoordinates,Original*%
%TF.FileFunction,Legend,Bot*%
%TF.FilePolarity,Positive*%
%FSLAX46Y46*%
G04 Gerber Fmt 4.6, Leading zero omitted, Abs format (unit mm)*
G04 Created by KiCad (PCBNEW (6.0.5-0)) date 2023-07-17 15:50:24*
%MOMM*%
%LPD*%
G01*
G04 APERTURE LIST*
%ADD10C,0.300000*%
G04 APERTURE END LIST*
D10*
X120018571Y-103103071D02*
X120732857Y-103103071D01*
X120732857Y-101603071D01*
X119447142Y-103103071D02*
X119161428Y-103103071D01*
X119018571Y-103031642D01*
X118947142Y-102960214D01*
X118804285Y-102745928D01*
X118732857Y-102460214D01*
X118732857Y-101888785D01*
X118804285Y-101745928D01*
X118875714Y-101674500D01*
X119018571Y-101603071D01*
X119304285Y-101603071D01*
X119447142Y-101674500D01*
X119518571Y-101745928D01*
X119590000Y-101888785D01*
X119590000Y-102245928D01*
X119518571Y-102388785D01*
X119447142Y-102460214D01*
X119304285Y-102531642D01*
X119018571Y-102531642D01*
X118875714Y-102460214D01*
X118804285Y-102388785D01*
X118732857Y-102245928D01*
X117304285Y-103103071D02*
X118161428Y-103103071D01*
X117732857Y-103103071D02*
X117732857Y-101603071D01*
X117875714Y-101817357D01*
X118018571Y-101960214D01*
X118161428Y-102031642D01*
X115875714Y-103103071D02*
X116732857Y-103103071D01*
X116304285Y-103103071D02*
X116304285Y-101603071D01*
X116447142Y-101817357D01*
X116590000Y-101960214D01*
X116732857Y-102031642D01*
X114947142Y-101603071D02*
X114804285Y-101603071D01*
X114661428Y-101674500D01*
X114590000Y-101745928D01*
X114518571Y-101888785D01*
X114447142Y-102174500D01*
X114447142Y-102531642D01*
X114518571Y-102817357D01*
X114590000Y-102960214D01*
X114661428Y-103031642D01*
X114804285Y-103103071D01*
X114947142Y-103103071D01*
X115090000Y-103031642D01*
X115161428Y-102960214D01*
X115232857Y-102817357D01*
X115304285Y-102531642D01*
X115304285Y-102174500D01*
X115232857Y-101888785D01*
X115161428Y-101745928D01*
X115090000Y-101674500D01*
X114947142Y-101603071D01*
X113804285Y-103103071D02*
X113804285Y-101603071D01*
X113804285Y-102317357D02*
X112947142Y-102317357D01*
X112947142Y-103103071D02*
X112947142Y-101603071D01*
X124268571Y-105446642D02*
X124125714Y-105518071D01*
X123840000Y-105518071D01*
X123697142Y-105446642D01*
X123625714Y-105303785D01*
X123625714Y-105232357D01*
X123697142Y-105089500D01*
X123840000Y-105018071D01*
X124054285Y-105018071D01*
X124197142Y-104946642D01*
X124268571Y-104803785D01*
X124268571Y-104732357D01*
X124197142Y-104589500D01*
X124054285Y-104518071D01*
X123840000Y-104518071D01*
X123697142Y-104589500D01*
X122982857Y-105518071D02*
X122982857Y-104518071D01*
X122982857Y-104660928D02*
X122911428Y-104589500D01*
X122768571Y-104518071D01*
X122554285Y-104518071D01*
X122411428Y-104589500D01*
X122340000Y-104732357D01*
X122340000Y-105518071D01*
X122340000Y-104732357D02*
X122268571Y-104589500D01*
X122125714Y-104518071D01*
X121911428Y-104518071D01*
X121768571Y-104589500D01*
X121697142Y-104732357D01*
X121697142Y-105518071D01*
X120340000Y-105518071D02*
X120340000Y-104732357D01*
X120411428Y-104589500D01*
X120554285Y-104518071D01*
X120840000Y-104518071D01*
X120982857Y-104589500D01*
X120340000Y-105446642D02*
X120482857Y-105518071D01*
X120840000Y-105518071D01*
X120982857Y-105446642D01*
X121054285Y-105303785D01*
X121054285Y-105160928D01*
X120982857Y-105018071D01*
X120840000Y-104946642D01*
X120482857Y-104946642D01*
X120340000Y-104875214D01*
X119411428Y-105518071D02*
X119554285Y-105446642D01*
X119625714Y-105303785D01*
X119625714Y-104018071D01*
X118625714Y-105518071D02*
X118768571Y-105446642D01*
X118840000Y-105303785D01*
X118840000Y-104018071D01*
X116911428Y-105518071D02*
X116911428Y-104518071D01*
X116911428Y-104660928D02*
X116840000Y-104589500D01*
X116697142Y-104518071D01*
X116482857Y-104518071D01*
X116340000Y-104589500D01*
X116268571Y-104732357D01*
X116268571Y-105518071D01*
X116268571Y-104732357D02*
X116197142Y-104589500D01*
X116054285Y-104518071D01*
X115840000Y-104518071D01*
X115697142Y-104589500D01*
X115625714Y-104732357D01*
X115625714Y-105518071D01*
X114697142Y-105518071D02*
X114840000Y-105446642D01*
X114911428Y-105375214D01*
X114982857Y-105232357D01*
X114982857Y-104803785D01*
X114911428Y-104660928D01*
X114840000Y-104589500D01*
X114697142Y-104518071D01*
X114482857Y-104518071D01*
X114340000Y-104589500D01*
X114268571Y-104660928D01*
X114197142Y-104803785D01*
X114197142Y-105232357D01*
X114268571Y-105375214D01*
X114340000Y-105446642D01*
X114482857Y-105518071D01*
X114697142Y-105518071D01*
X112911428Y-105518071D02*
X112911428Y-104018071D01*
X112911428Y-105446642D02*
X113054285Y-105518071D01*
X113340000Y-105518071D01*
X113482857Y-105446642D01*
X113554285Y-105375214D01*
X113625714Y-105232357D01*
X113625714Y-104803785D01*
X113554285Y-104660928D01*
X113482857Y-104589500D01*
X113340000Y-104518071D01*
X113054285Y-104518071D01*
X112911428Y-104589500D01*
X111554285Y-104518071D02*
X111554285Y-105518071D01*
X112197142Y-104518071D02*
X112197142Y-105303785D01*
X112125714Y-105446642D01*
X111982857Y-105518071D01*
X111768571Y-105518071D01*
X111625714Y-105446642D01*
X111554285Y-105375214D01*
X110625714Y-105518071D02*
X110768571Y-105446642D01*
X110840000Y-105303785D01*
X110840000Y-104018071D01*
X109482857Y-105446642D02*
X109625714Y-105518071D01*
X109911428Y-105518071D01*
X110054285Y-105446642D01*
X110125714Y-105303785D01*
X110125714Y-104732357D01*
X110054285Y-104589500D01*
X109911428Y-104518071D01*
X109625714Y-104518071D01*
X109482857Y-104589500D01*
X109411428Y-104732357D01*
X109411428Y-104875214D01*
X110125714Y-105018071D01*
M02*
