%TF.GenerationSoftware,KiCad,Pcbnew,(6.0.5-0)*%
%TF.CreationDate,2023-07-17T15:50:24+09:00*%
%TF.ProjectId,l9110h-1ch-driver,6c393131-3068-42d3-9163-682d64726976,rev?*%
%TF.SameCoordinates,Original*%
%TF.FileFunction,Legend,Top*%
%TF.FilePolarity,Positive*%
%FSLAX46Y46*%
G04 Gerber Fmt 4.6, Leading zero omitted, Abs format (unit mm)*
G04 Created by KiCad (PCBNEW (6.0.5-0)) date 2023-07-17 15:50:24*
%MOMM*%
%LPD*%
G01*
G04 APERTURE LIST*
%ADD10C,0.300000*%
%ADD11C,0.129000*%
%ADD12C,0.120000*%
G04 APERTURE END LIST*
D10*
X108962523Y-100491809D02*
X108962523Y-98891809D01*
X110014904Y-99653714D02*
X110200619Y-99729904D01*
X110262523Y-99806095D01*
X110324428Y-99958476D01*
X110324428Y-100187047D01*
X110262523Y-100339428D01*
X110200619Y-100415619D01*
X110076809Y-100491809D01*
X109581571Y-100491809D01*
X109581571Y-98891809D01*
X110014904Y-98891809D01*
X110138714Y-98968000D01*
X110200619Y-99044190D01*
X110262523Y-99196571D01*
X110262523Y-99348952D01*
X110200619Y-99501333D01*
X110138714Y-99577523D01*
X110014904Y-99653714D01*
X109581571Y-99653714D01*
X108962523Y-103067809D02*
X108962523Y-101467809D01*
X109519666Y-102610666D02*
X110138714Y-102610666D01*
X109395857Y-103067809D02*
X109829190Y-101467809D01*
X110262523Y-103067809D01*
X109643476Y-104120000D02*
X109519666Y-104043809D01*
X109333952Y-104043809D01*
X109148238Y-104120000D01*
X109024428Y-104272380D01*
X108962523Y-104424761D01*
X108900619Y-104729523D01*
X108900619Y-104958095D01*
X108962523Y-105262857D01*
X109024428Y-105415238D01*
X109148238Y-105567619D01*
X109333952Y-105643809D01*
X109457761Y-105643809D01*
X109643476Y-105567619D01*
X109705380Y-105491428D01*
X109705380Y-104958095D01*
X109457761Y-104958095D01*
X110262523Y-105643809D02*
X110262523Y-104043809D01*
X111005380Y-105643809D01*
X111005380Y-104043809D01*
X111624428Y-105643809D02*
X111624428Y-104043809D01*
X111933952Y-104043809D01*
X112119666Y-104120000D01*
X112243476Y-104272380D01*
X112305380Y-104424761D01*
X112367285Y-104729523D01*
X112367285Y-104958095D01*
X112305380Y-105262857D01*
X112243476Y-105415238D01*
X112119666Y-105567619D01*
X111933952Y-105643809D01*
X111624428Y-105643809D01*
X108776809Y-106619809D02*
X109210142Y-108219809D01*
X109643476Y-106619809D01*
X110819666Y-108067428D02*
X110757761Y-108143619D01*
X110572047Y-108219809D01*
X110448238Y-108219809D01*
X110262523Y-108143619D01*
X110138714Y-107991238D01*
X110076809Y-107838857D01*
X110014904Y-107534095D01*
X110014904Y-107305523D01*
X110076809Y-107000761D01*
X110138714Y-106848380D01*
X110262523Y-106696000D01*
X110448238Y-106619809D01*
X110572047Y-106619809D01*
X110757761Y-106696000D01*
X110819666Y-106772190D01*
X112119666Y-108067428D02*
X112057761Y-108143619D01*
X111872047Y-108219809D01*
X111748238Y-108219809D01*
X111562523Y-108143619D01*
X111438714Y-107991238D01*
X111376809Y-107838857D01*
X111314904Y-107534095D01*
X111314904Y-107305523D01*
X111376809Y-107000761D01*
X111438714Y-106848380D01*
X111562523Y-106696000D01*
X111748238Y-106619809D01*
X111872047Y-106619809D01*
X112057761Y-106696000D01*
X112119666Y-106772190D01*
X128006142Y-101721809D02*
X128253761Y-101721809D01*
X128377571Y-101798000D01*
X128501380Y-101950380D01*
X128563285Y-102255142D01*
X128563285Y-102788476D01*
X128501380Y-103093238D01*
X128377571Y-103245619D01*
X128253761Y-103321809D01*
X128006142Y-103321809D01*
X127882333Y-103245619D01*
X127758523Y-103093238D01*
X127696619Y-102788476D01*
X127696619Y-102255142D01*
X127758523Y-101950380D01*
X127882333Y-101798000D01*
X128006142Y-101721809D01*
X129553761Y-102483714D02*
X129739476Y-102559904D01*
X129801380Y-102636095D01*
X129863285Y-102788476D01*
X129863285Y-103017047D01*
X129801380Y-103169428D01*
X129739476Y-103245619D01*
X129615666Y-103321809D01*
X129120428Y-103321809D01*
X129120428Y-101721809D01*
X129553761Y-101721809D01*
X129677571Y-101798000D01*
X129739476Y-101874190D01*
X129801380Y-102026571D01*
X129801380Y-102178952D01*
X129739476Y-102331333D01*
X129677571Y-102407523D01*
X129553761Y-102483714D01*
X129120428Y-102483714D01*
X128006142Y-104297809D02*
X128253761Y-104297809D01*
X128377571Y-104374000D01*
X128501380Y-104526380D01*
X128563285Y-104831142D01*
X128563285Y-105364476D01*
X128501380Y-105669238D01*
X128377571Y-105821619D01*
X128253761Y-105897809D01*
X128006142Y-105897809D01*
X127882333Y-105821619D01*
X127758523Y-105669238D01*
X127696619Y-105364476D01*
X127696619Y-104831142D01*
X127758523Y-104526380D01*
X127882333Y-104374000D01*
X128006142Y-104297809D01*
X129058523Y-105440666D02*
X129677571Y-105440666D01*
X128934714Y-105897809D02*
X129368047Y-104297809D01*
X129801380Y-105897809D01*
D11*
%TO.C,C1*%
X126291142Y-103775333D02*
X126332095Y-103816285D01*
X126373047Y-103939142D01*
X126373047Y-104021047D01*
X126332095Y-104143904D01*
X126250190Y-104225809D01*
X126168285Y-104266761D01*
X126004476Y-104307714D01*
X125881619Y-104307714D01*
X125717809Y-104266761D01*
X125635904Y-104225809D01*
X125554000Y-104143904D01*
X125513047Y-104021047D01*
X125513047Y-103939142D01*
X125554000Y-103816285D01*
X125594952Y-103775333D01*
X126373047Y-102956285D02*
X126373047Y-103447714D01*
X126373047Y-103202000D02*
X125513047Y-103202000D01*
X125635904Y-103283904D01*
X125717809Y-103365809D01*
X125758761Y-103447714D01*
D12*
X127039000Y-101362000D02*
X127054000Y-101362000D01*
X127054000Y-105902000D02*
X127054000Y-101362000D01*
X124914000Y-101362000D02*
X124929000Y-101362000D01*
X124914000Y-105902000D02*
X124929000Y-105902000D01*
X124914000Y-105902000D02*
X124914000Y-101362000D01*
X127039000Y-105902000D02*
X127054000Y-105902000D01*
%TO.C,U1*%
X112970000Y-100972000D02*
X112970000Y-102622000D01*
X123250000Y-106272000D02*
X123250000Y-100972000D01*
X112970000Y-106272000D02*
X123250000Y-106272000D01*
X123250000Y-100972000D02*
X112970000Y-100972000D01*
X112970000Y-104622000D02*
X112970000Y-106272000D01*
X112970000Y-104622000D02*
G75*
G03*
X112970000Y-102622000I0J1000000D01*
G01*
%TD*%
M02*
