%TF.GenerationSoftware,KiCad,Pcbnew,(6.0.5-0)*%
%TF.CreationDate,2023-07-17T15:50:24+09:00*%
%TF.ProjectId,l9110h-1ch-driver,6c393131-3068-42d3-9163-682d64726976,rev?*%
%TF.SameCoordinates,Original*%
%TF.FileFunction,Copper,L2,Bot*%
%TF.FilePolarity,Positive*%
%FSLAX46Y46*%
G04 Gerber Fmt 4.6, Leading zero omitted, Abs format (unit mm)*
G04 Created by KiCad (PCBNEW (6.0.5-0)) date 2023-07-17 15:50:24*
%MOMM*%
%LPD*%
G01*
G04 APERTURE LIST*
%TA.AperFunction,ComponentPad*%
%ADD10R,1.700000X1.700000*%
%TD*%
%TA.AperFunction,ComponentPad*%
%ADD11O,1.700000X1.700000*%
%TD*%
%TA.AperFunction,ComponentPad*%
%ADD12C,1.600000*%
%TD*%
%TA.AperFunction,ComponentPad*%
%ADD13R,1.600000X1.600000*%
%TD*%
%TA.AperFunction,ComponentPad*%
%ADD14O,1.600000X1.600000*%
%TD*%
%TA.AperFunction,Conductor*%
%ADD15C,0.250000*%
%TD*%
G04 APERTURE END LIST*
D10*
%TO.P,J1,1,Pin_1*%
%TO.N,Net-(J1-Pad1)*%
X106680000Y-107432000D03*
D11*
%TO.P,J1,2,Pin_2*%
%TO.N,Net-(J1-Pad2)*%
X106680000Y-104892000D03*
%TO.P,J1,3,Pin_3*%
%TO.N,Net-(J1-Pad3)*%
X106680000Y-102352000D03*
%TO.P,J1,4,Pin_4*%
%TO.N,Net-(J1-Pad4)*%
X106680000Y-99812000D03*
%TD*%
D12*
%TO.P,C1,1*%
%TO.N,Net-(C1-Pad1)*%
X125984000Y-106132000D03*
%TO.P,C1,2*%
%TO.N,Net-(C1-Pad2)*%
X125984000Y-101132000D03*
%TD*%
D13*
%TO.P,U1,1,OA*%
%TO.N,Net-(C1-Pad1)*%
X114300000Y-107432000D03*
D14*
%TO.P,U1,2,VCC*%
%TO.N,Net-(J1-Pad1)*%
X116840000Y-107432000D03*
%TO.P,U1,3,VCC*%
X119380000Y-107432000D03*
%TO.P,U1,4,OB*%
%TO.N,Net-(C1-Pad2)*%
X121920000Y-107432000D03*
%TO.P,U1,5,GND*%
%TO.N,Net-(J1-Pad2)*%
X121920000Y-99812000D03*
%TO.P,U1,6,IA*%
%TO.N,Net-(J1-Pad3)*%
X119380000Y-99812000D03*
%TO.P,U1,7,IB*%
%TO.N,Net-(J1-Pad4)*%
X116840000Y-99812000D03*
%TO.P,U1,8,GND*%
%TO.N,Net-(J1-Pad2)*%
X114300000Y-99812000D03*
%TD*%
D10*
%TO.P,J2,1,Pin_1*%
%TO.N,Net-(C1-Pad1)*%
X131572000Y-104907000D03*
D11*
%TO.P,J2,2,Pin_2*%
%TO.N,Net-(C1-Pad2)*%
X131572000Y-102367000D03*
%TD*%
D15*
%TO.N,Net-(C1-Pad1)*%
X114300000Y-106426000D02*
X114300000Y-107442000D01*
X115062000Y-105664000D02*
X114300000Y-106426000D01*
X125984000Y-106132000D02*
X125516000Y-105664000D01*
X125516000Y-105664000D02*
X115062000Y-105664000D01*
%TO.N,Net-(J1-Pad2)*%
X114808000Y-104140000D02*
X114056000Y-104892000D01*
X114808000Y-101600000D02*
X114300000Y-101092000D01*
X121412000Y-101600000D02*
X114808000Y-101600000D01*
X114300000Y-101092000D02*
X114300000Y-99822000D01*
X121920000Y-99822000D02*
X121920000Y-101092000D01*
X114808000Y-101600000D02*
X114808000Y-104140000D01*
X121920000Y-101092000D02*
X121412000Y-101600000D01*
X114056000Y-104892000D02*
X106680000Y-104892000D01*
%TD*%
%TA.AperFunction,NonConductor*%
G36*
X119083859Y-98318502D02*
G01*
X119130352Y-98372158D01*
X119140456Y-98442432D01*
X119110962Y-98507012D01*
X119048350Y-98546207D01*
X118930757Y-98577716D01*
X118925776Y-98580039D01*
X118925775Y-98580039D01*
X118728238Y-98672151D01*
X118728233Y-98672154D01*
X118723251Y-98674477D01*
X118676554Y-98707175D01*
X118540211Y-98802643D01*
X118540208Y-98802645D01*
X118535700Y-98805802D01*
X118373802Y-98967700D01*
X118370645Y-98972208D01*
X118370643Y-98972211D01*
X118315902Y-99050389D01*
X118242477Y-99155251D01*
X118240154Y-99160233D01*
X118240151Y-99160238D01*
X118224195Y-99194457D01*
X118177278Y-99247742D01*
X118109001Y-99267203D01*
X118041041Y-99246661D01*
X117995805Y-99194457D01*
X117979849Y-99160238D01*
X117979846Y-99160233D01*
X117977523Y-99155251D01*
X117904098Y-99050389D01*
X117849357Y-98972211D01*
X117849355Y-98972208D01*
X117846198Y-98967700D01*
X117684300Y-98805802D01*
X117679792Y-98802645D01*
X117679789Y-98802643D01*
X117543446Y-98707175D01*
X117496749Y-98674477D01*
X117491767Y-98672154D01*
X117491762Y-98672151D01*
X117294225Y-98580039D01*
X117294224Y-98580039D01*
X117289243Y-98577716D01*
X117171649Y-98546207D01*
X117111028Y-98509255D01*
X117080006Y-98445394D01*
X117088435Y-98374900D01*
X117133638Y-98320153D01*
X117204262Y-98298500D01*
X119015738Y-98298500D01*
X119083859Y-98318502D01*
G37*
%TD.AperFunction*%
%TA.AperFunction,NonConductor*%
G36*
X116543859Y-98318502D02*
G01*
X116590352Y-98372158D01*
X116600456Y-98442432D01*
X116570962Y-98507012D01*
X116508350Y-98546207D01*
X116390757Y-98577716D01*
X116385776Y-98580039D01*
X116385775Y-98580039D01*
X116188238Y-98672151D01*
X116188233Y-98672154D01*
X116183251Y-98674477D01*
X116136554Y-98707175D01*
X116000211Y-98802643D01*
X116000208Y-98802645D01*
X115995700Y-98805802D01*
X115833802Y-98967700D01*
X115830645Y-98972208D01*
X115830643Y-98972211D01*
X115775902Y-99050389D01*
X115702477Y-99155251D01*
X115700154Y-99160233D01*
X115700151Y-99160238D01*
X115684195Y-99194457D01*
X115637278Y-99247742D01*
X115569001Y-99267203D01*
X115501041Y-99246661D01*
X115455805Y-99194457D01*
X115439849Y-99160238D01*
X115439846Y-99160233D01*
X115437523Y-99155251D01*
X115364098Y-99050389D01*
X115309357Y-98972211D01*
X115309355Y-98972208D01*
X115306198Y-98967700D01*
X115144300Y-98805802D01*
X115139792Y-98802645D01*
X115139789Y-98802643D01*
X115003446Y-98707175D01*
X114956749Y-98674477D01*
X114951767Y-98672154D01*
X114951762Y-98672151D01*
X114754225Y-98580039D01*
X114754224Y-98580039D01*
X114749243Y-98577716D01*
X114631649Y-98546207D01*
X114571028Y-98509255D01*
X114540006Y-98445394D01*
X114548435Y-98374900D01*
X114593638Y-98320153D01*
X114664262Y-98298500D01*
X116475738Y-98298500D01*
X116543859Y-98318502D01*
G37*
%TD.AperFunction*%
%TA.AperFunction,NonConductor*%
G36*
X121623859Y-98318502D02*
G01*
X121670352Y-98372158D01*
X121680456Y-98442432D01*
X121650962Y-98507012D01*
X121588350Y-98546207D01*
X121470757Y-98577716D01*
X121465776Y-98580039D01*
X121465775Y-98580039D01*
X121268238Y-98672151D01*
X121268233Y-98672154D01*
X121263251Y-98674477D01*
X121216554Y-98707175D01*
X121080211Y-98802643D01*
X121080208Y-98802645D01*
X121075700Y-98805802D01*
X120913802Y-98967700D01*
X120910645Y-98972208D01*
X120910643Y-98972211D01*
X120855902Y-99050389D01*
X120782477Y-99155251D01*
X120780154Y-99160233D01*
X120780151Y-99160238D01*
X120764195Y-99194457D01*
X120717278Y-99247742D01*
X120649001Y-99267203D01*
X120581041Y-99246661D01*
X120535805Y-99194457D01*
X120519849Y-99160238D01*
X120519846Y-99160233D01*
X120517523Y-99155251D01*
X120444098Y-99050389D01*
X120389357Y-98972211D01*
X120389355Y-98972208D01*
X120386198Y-98967700D01*
X120224300Y-98805802D01*
X120219792Y-98802645D01*
X120219789Y-98802643D01*
X120083446Y-98707175D01*
X120036749Y-98674477D01*
X120031767Y-98672154D01*
X120031762Y-98672151D01*
X119834225Y-98580039D01*
X119834224Y-98580039D01*
X119829243Y-98577716D01*
X119711649Y-98546207D01*
X119651028Y-98509255D01*
X119620006Y-98445394D01*
X119628435Y-98374900D01*
X119673638Y-98320153D01*
X119744262Y-98298500D01*
X121555738Y-98298500D01*
X121623859Y-98318502D01*
G37*
%TD.AperFunction*%
%TA.AperFunction,NonConductor*%
G36*
X115638959Y-100377339D02*
G01*
X115684195Y-100429543D01*
X115700151Y-100463762D01*
X115700154Y-100463767D01*
X115702477Y-100468749D01*
X115705634Y-100473257D01*
X115809078Y-100620990D01*
X115833802Y-100656300D01*
X115928907Y-100751405D01*
X115962933Y-100813717D01*
X115957868Y-100884532D01*
X115915321Y-100941368D01*
X115848801Y-100966179D01*
X115839812Y-100966500D01*
X115300188Y-100966500D01*
X115232067Y-100946498D01*
X115185574Y-100892842D01*
X115175470Y-100822568D01*
X115204964Y-100757988D01*
X115211093Y-100751405D01*
X115306198Y-100656300D01*
X115330923Y-100620990D01*
X115434366Y-100473257D01*
X115437523Y-100468749D01*
X115439846Y-100463767D01*
X115439849Y-100463762D01*
X115455805Y-100429543D01*
X115502722Y-100376258D01*
X115570999Y-100356797D01*
X115638959Y-100377339D01*
G37*
%TD.AperFunction*%
%TA.AperFunction,NonConductor*%
G36*
X118178959Y-100377339D02*
G01*
X118224195Y-100429543D01*
X118240151Y-100463762D01*
X118240154Y-100463767D01*
X118242477Y-100468749D01*
X118245634Y-100473257D01*
X118349078Y-100620990D01*
X118373802Y-100656300D01*
X118468907Y-100751405D01*
X118502933Y-100813717D01*
X118497868Y-100884532D01*
X118455321Y-100941368D01*
X118388801Y-100966179D01*
X118379812Y-100966500D01*
X117840188Y-100966500D01*
X117772067Y-100946498D01*
X117725574Y-100892842D01*
X117715470Y-100822568D01*
X117744964Y-100757988D01*
X117751093Y-100751405D01*
X117846198Y-100656300D01*
X117870923Y-100620990D01*
X117974366Y-100473257D01*
X117977523Y-100468749D01*
X117979846Y-100463767D01*
X117979849Y-100463762D01*
X117995805Y-100429543D01*
X118042722Y-100376258D01*
X118110999Y-100356797D01*
X118178959Y-100377339D01*
G37*
%TD.AperFunction*%
%TA.AperFunction,NonConductor*%
G36*
X120718959Y-100377339D02*
G01*
X120764195Y-100429543D01*
X120780151Y-100463762D01*
X120780154Y-100463767D01*
X120782477Y-100468749D01*
X120785634Y-100473257D01*
X120889078Y-100620990D01*
X120913802Y-100656300D01*
X121008907Y-100751405D01*
X121042933Y-100813717D01*
X121037868Y-100884532D01*
X120995321Y-100941368D01*
X120928801Y-100966179D01*
X120919812Y-100966500D01*
X120380188Y-100966500D01*
X120312067Y-100946498D01*
X120265574Y-100892842D01*
X120255470Y-100822568D01*
X120284964Y-100757988D01*
X120291093Y-100751405D01*
X120386198Y-100656300D01*
X120410923Y-100620990D01*
X120514366Y-100473257D01*
X120517523Y-100468749D01*
X120519846Y-100463767D01*
X120519849Y-100463762D01*
X120535805Y-100429543D01*
X120582722Y-100376258D01*
X120650999Y-100356797D01*
X120718959Y-100377339D01*
G37*
%TD.AperFunction*%
%TA.AperFunction,NonConductor*%
G36*
X114003859Y-98318502D02*
G01*
X114050352Y-98372158D01*
X114060456Y-98442432D01*
X114030962Y-98507012D01*
X113968350Y-98546207D01*
X113850757Y-98577716D01*
X113845776Y-98580039D01*
X113845775Y-98580039D01*
X113648238Y-98672151D01*
X113648233Y-98672154D01*
X113643251Y-98674477D01*
X113596554Y-98707175D01*
X113460211Y-98802643D01*
X113460208Y-98802645D01*
X113455700Y-98805802D01*
X113293802Y-98967700D01*
X113290645Y-98972208D01*
X113290643Y-98972211D01*
X113235902Y-99050389D01*
X113162477Y-99155251D01*
X113160154Y-99160233D01*
X113160151Y-99160238D01*
X113144195Y-99194457D01*
X113065716Y-99362757D01*
X113064294Y-99368065D01*
X113064293Y-99368067D01*
X113012407Y-99561707D01*
X113006457Y-99583913D01*
X112986502Y-99812000D01*
X113006457Y-100040087D01*
X113007881Y-100045400D01*
X113007881Y-100045402D01*
X113055851Y-100224425D01*
X113065716Y-100261243D01*
X113068039Y-100266224D01*
X113068039Y-100266225D01*
X113160151Y-100463762D01*
X113160154Y-100463767D01*
X113162477Y-100468749D01*
X113165634Y-100473257D01*
X113269078Y-100620990D01*
X113293802Y-100656300D01*
X113455700Y-100818198D01*
X113460208Y-100821355D01*
X113460211Y-100821357D01*
X113500445Y-100849529D01*
X113578114Y-100903913D01*
X113611161Y-100927053D01*
X113655489Y-100982510D01*
X113662821Y-101031955D01*
X113664298Y-101031909D01*
X113666438Y-101099986D01*
X113666500Y-101103945D01*
X113666500Y-101131856D01*
X113666997Y-101135790D01*
X113666997Y-101135791D01*
X113667005Y-101135856D01*
X113667938Y-101147693D01*
X113669327Y-101191889D01*
X113674978Y-101211339D01*
X113678987Y-101230700D01*
X113681526Y-101250797D01*
X113684445Y-101258168D01*
X113684445Y-101258170D01*
X113697804Y-101291912D01*
X113701649Y-101303142D01*
X113713982Y-101345593D01*
X113718015Y-101352412D01*
X113718017Y-101352417D01*
X113724293Y-101363028D01*
X113732988Y-101380776D01*
X113740448Y-101399617D01*
X113745110Y-101406033D01*
X113745110Y-101406034D01*
X113766436Y-101435387D01*
X113772952Y-101445307D01*
X113789390Y-101473101D01*
X113795458Y-101483362D01*
X113809779Y-101497683D01*
X113822619Y-101512716D01*
X113834528Y-101529107D01*
X113850773Y-101542546D01*
X113868605Y-101557298D01*
X113877384Y-101565288D01*
X114137595Y-101825499D01*
X114171621Y-101887811D01*
X114174500Y-101914594D01*
X114174500Y-103825405D01*
X114154498Y-103893526D01*
X114137595Y-103914501D01*
X113830499Y-104221596D01*
X113768187Y-104255621D01*
X113741404Y-104258500D01*
X107956805Y-104258500D01*
X107888684Y-104238498D01*
X107851013Y-104200940D01*
X107762822Y-104064617D01*
X107762820Y-104064614D01*
X107760014Y-104060277D01*
X107609670Y-103895051D01*
X107605619Y-103891852D01*
X107605615Y-103891848D01*
X107438414Y-103759800D01*
X107438410Y-103759798D01*
X107434359Y-103756598D01*
X107393053Y-103733796D01*
X107343084Y-103683364D01*
X107328312Y-103613921D01*
X107353428Y-103547516D01*
X107380780Y-103520909D01*
X107440837Y-103478071D01*
X107559860Y-103393173D01*
X107605004Y-103348187D01*
X107707342Y-103246205D01*
X107718096Y-103235489D01*
X107746396Y-103196106D01*
X107845435Y-103058277D01*
X107848453Y-103054077D01*
X107947430Y-102853811D01*
X108012370Y-102640069D01*
X108041529Y-102418590D01*
X108043156Y-102352000D01*
X108024852Y-102129361D01*
X107970431Y-101912702D01*
X107881354Y-101707840D01*
X107797501Y-101578223D01*
X107762822Y-101524617D01*
X107762820Y-101524614D01*
X107760014Y-101520277D01*
X107609670Y-101355051D01*
X107605619Y-101351852D01*
X107605615Y-101351848D01*
X107438414Y-101219800D01*
X107438410Y-101219798D01*
X107434359Y-101216598D01*
X107393053Y-101193796D01*
X107343084Y-101143364D01*
X107328312Y-101073921D01*
X107353428Y-101007516D01*
X107380780Y-100980909D01*
X107436214Y-100941368D01*
X107559860Y-100853173D01*
X107591788Y-100821357D01*
X107714435Y-100699137D01*
X107718096Y-100695489D01*
X107749498Y-100651789D01*
X107845435Y-100518277D01*
X107848453Y-100514077D01*
X107868628Y-100473257D01*
X107945136Y-100318453D01*
X107945137Y-100318451D01*
X107947430Y-100313811D01*
X108004552Y-100125802D01*
X108010865Y-100105023D01*
X108010865Y-100105021D01*
X108012370Y-100100069D01*
X108041529Y-99878590D01*
X108042521Y-99837978D01*
X108043074Y-99815365D01*
X108043074Y-99815361D01*
X108043156Y-99812000D01*
X108024852Y-99589361D01*
X107970431Y-99372702D01*
X107881354Y-99167840D01*
X107760014Y-98980277D01*
X107609670Y-98815051D01*
X107605619Y-98811852D01*
X107605615Y-98811848D01*
X107438414Y-98679800D01*
X107438410Y-98679798D01*
X107434359Y-98676598D01*
X107426304Y-98672151D01*
X107382136Y-98647769D01*
X107238789Y-98568638D01*
X107208034Y-98557747D01*
X107167161Y-98543273D01*
X107109624Y-98501679D01*
X107083708Y-98435581D01*
X107097642Y-98365966D01*
X107147000Y-98314934D01*
X107209220Y-98298500D01*
X113935738Y-98298500D01*
X114003859Y-98318502D01*
G37*
%TD.AperFunction*%
%TA.AperFunction,NonConductor*%
G36*
X118427933Y-106317502D02*
G01*
X118474426Y-106371158D01*
X118484530Y-106441432D01*
X118455036Y-106506012D01*
X118448907Y-106512595D01*
X118373802Y-106587700D01*
X118242477Y-106775251D01*
X118240154Y-106780233D01*
X118240151Y-106780238D01*
X118224195Y-106814457D01*
X118177278Y-106867742D01*
X118109001Y-106887203D01*
X118041041Y-106866661D01*
X117995805Y-106814457D01*
X117979849Y-106780238D01*
X117979846Y-106780233D01*
X117977523Y-106775251D01*
X117846198Y-106587700D01*
X117771093Y-106512595D01*
X117737067Y-106450283D01*
X117742132Y-106379468D01*
X117784679Y-106322632D01*
X117851199Y-106297821D01*
X117860188Y-106297500D01*
X118359812Y-106297500D01*
X118427933Y-106317502D01*
G37*
%TD.AperFunction*%
%TA.AperFunction,NonConductor*%
G36*
X120967933Y-106317502D02*
G01*
X121014426Y-106371158D01*
X121024530Y-106441432D01*
X120995036Y-106506012D01*
X120988907Y-106512595D01*
X120913802Y-106587700D01*
X120782477Y-106775251D01*
X120780154Y-106780233D01*
X120780151Y-106780238D01*
X120764195Y-106814457D01*
X120717278Y-106867742D01*
X120649001Y-106887203D01*
X120581041Y-106866661D01*
X120535805Y-106814457D01*
X120519849Y-106780238D01*
X120519846Y-106780233D01*
X120517523Y-106775251D01*
X120386198Y-106587700D01*
X120311093Y-106512595D01*
X120277067Y-106450283D01*
X120282132Y-106379468D01*
X120324679Y-106322632D01*
X120391199Y-106297821D01*
X120400188Y-106297500D01*
X120899812Y-106297500D01*
X120967933Y-106317502D01*
G37*
%TD.AperFunction*%
%TA.AperFunction,NonConductor*%
G36*
X132304018Y-98300000D02*
G01*
X132318852Y-98302310D01*
X132318855Y-98302310D01*
X132327724Y-98303691D01*
X132336626Y-98302527D01*
X132336750Y-98302511D01*
X132367192Y-98302240D01*
X132399012Y-98305825D01*
X132432825Y-98309635D01*
X132460327Y-98315912D01*
X132540798Y-98344070D01*
X132566214Y-98356310D01*
X132595800Y-98374900D01*
X132638404Y-98401670D01*
X132660462Y-98419262D01*
X132720738Y-98479538D01*
X132738329Y-98501595D01*
X132773613Y-98557747D01*
X132783690Y-98573785D01*
X132795930Y-98599202D01*
X132824088Y-98679673D01*
X132830365Y-98707176D01*
X132837018Y-98766226D01*
X132836923Y-98781868D01*
X132837800Y-98781879D01*
X132837690Y-98790851D01*
X132836309Y-98799724D01*
X132837473Y-98808626D01*
X132837473Y-98808628D01*
X132840436Y-98831283D01*
X132841500Y-98847621D01*
X132841500Y-101417828D01*
X132821498Y-101485949D01*
X132767842Y-101532442D01*
X132697568Y-101542546D01*
X132632988Y-101513052D01*
X132622307Y-101502628D01*
X132505152Y-101373876D01*
X132505142Y-101373867D01*
X132501670Y-101370051D01*
X132497619Y-101366852D01*
X132497615Y-101366848D01*
X132330414Y-101234800D01*
X132330410Y-101234798D01*
X132326359Y-101231598D01*
X132306462Y-101220614D01*
X132268208Y-101199497D01*
X132130789Y-101123638D01*
X132125920Y-101121914D01*
X132125916Y-101121912D01*
X131925087Y-101050795D01*
X131925083Y-101050794D01*
X131920212Y-101049069D01*
X131915119Y-101048162D01*
X131915116Y-101048161D01*
X131705373Y-101010800D01*
X131705367Y-101010799D01*
X131700284Y-101009894D01*
X131626452Y-101008992D01*
X131482081Y-101007228D01*
X131482079Y-101007228D01*
X131476911Y-101007165D01*
X131256091Y-101040955D01*
X131043756Y-101110357D01*
X130983255Y-101141852D01*
X130886870Y-101192027D01*
X130845607Y-101213507D01*
X130841474Y-101216610D01*
X130841471Y-101216612D01*
X130679820Y-101337983D01*
X130666965Y-101347635D01*
X130639407Y-101376473D01*
X130521789Y-101499553D01*
X130512629Y-101509138D01*
X130509715Y-101513410D01*
X130509714Y-101513411D01*
X130465502Y-101578223D01*
X130386743Y-101693680D01*
X130344929Y-101783762D01*
X130296631Y-101887811D01*
X130292688Y-101896305D01*
X130232989Y-102111570D01*
X130209251Y-102333695D01*
X130222110Y-102556715D01*
X130223247Y-102561761D01*
X130223248Y-102561767D01*
X130239739Y-102634939D01*
X130271222Y-102774639D01*
X130355266Y-102981616D01*
X130471987Y-103172088D01*
X130618250Y-103340938D01*
X130622230Y-103344242D01*
X130626981Y-103348187D01*
X130666616Y-103407090D01*
X130668113Y-103478071D01*
X130630997Y-103538593D01*
X130590725Y-103563112D01*
X130494751Y-103599091D01*
X130475295Y-103606385D01*
X130358739Y-103693739D01*
X130271385Y-103810295D01*
X130220255Y-103946684D01*
X130213500Y-104008866D01*
X130213500Y-105805134D01*
X130220255Y-105867316D01*
X130271385Y-106003705D01*
X130358739Y-106120261D01*
X130475295Y-106207615D01*
X130611684Y-106258745D01*
X130673866Y-106265500D01*
X132470134Y-106265500D01*
X132532316Y-106258745D01*
X132668705Y-106207615D01*
X132669764Y-106210440D01*
X132724360Y-106198505D01*
X132790906Y-106223248D01*
X132833511Y-106280040D01*
X132841500Y-106324193D01*
X132841500Y-108408633D01*
X132840000Y-108428018D01*
X132836309Y-108451724D01*
X132837473Y-108460626D01*
X132837489Y-108460750D01*
X132837760Y-108491193D01*
X132830365Y-108556825D01*
X132824088Y-108584327D01*
X132795930Y-108664798D01*
X132783690Y-108690214D01*
X132741733Y-108756988D01*
X132738330Y-108762404D01*
X132720738Y-108784462D01*
X132660462Y-108844738D01*
X132638405Y-108862329D01*
X132591437Y-108891842D01*
X132566215Y-108907690D01*
X132540798Y-108919930D01*
X132460327Y-108948088D01*
X132432824Y-108954365D01*
X132373774Y-108961018D01*
X132358132Y-108960923D01*
X132358121Y-108961800D01*
X132349149Y-108961690D01*
X132340276Y-108960309D01*
X132331374Y-108961473D01*
X132331372Y-108961473D01*
X132320385Y-108962910D01*
X132308714Y-108964436D01*
X132292379Y-108965500D01*
X122209621Y-108965500D01*
X122141500Y-108945498D01*
X122095007Y-108891842D01*
X122084903Y-108821568D01*
X122114397Y-108756988D01*
X122177010Y-108717793D01*
X122363933Y-108667707D01*
X122363935Y-108667706D01*
X122369243Y-108666284D01*
X122402788Y-108650642D01*
X122571762Y-108571849D01*
X122571767Y-108571846D01*
X122576749Y-108569523D01*
X122706450Y-108478705D01*
X122759789Y-108441357D01*
X122759792Y-108441355D01*
X122764300Y-108438198D01*
X122926198Y-108276300D01*
X123057523Y-108088749D01*
X123059846Y-108083767D01*
X123059849Y-108083762D01*
X123151961Y-107886225D01*
X123151961Y-107886224D01*
X123154284Y-107881243D01*
X123213543Y-107660087D01*
X123233498Y-107432000D01*
X123213543Y-107203913D01*
X123195935Y-107138198D01*
X123155707Y-106988067D01*
X123155706Y-106988065D01*
X123154284Y-106982757D01*
X123075805Y-106814457D01*
X123059849Y-106780238D01*
X123059846Y-106780233D01*
X123057523Y-106775251D01*
X122926198Y-106587700D01*
X122851093Y-106512595D01*
X122817067Y-106450283D01*
X122822132Y-106379468D01*
X122864679Y-106322632D01*
X122931199Y-106297821D01*
X122940188Y-106297500D01*
X124577003Y-106297500D01*
X124645124Y-106317502D01*
X124691617Y-106371158D01*
X124698710Y-106390888D01*
X124733757Y-106521684D01*
X124749716Y-106581243D01*
X124752039Y-106586224D01*
X124752039Y-106586225D01*
X124844151Y-106783762D01*
X124844154Y-106783767D01*
X124846477Y-106788749D01*
X124977802Y-106976300D01*
X125139700Y-107138198D01*
X125144208Y-107141355D01*
X125144211Y-107141357D01*
X125222389Y-107196098D01*
X125327251Y-107269523D01*
X125332233Y-107271846D01*
X125332238Y-107271849D01*
X125529775Y-107363961D01*
X125534757Y-107366284D01*
X125540065Y-107367706D01*
X125540067Y-107367707D01*
X125750598Y-107424119D01*
X125750600Y-107424119D01*
X125755913Y-107425543D01*
X125984000Y-107445498D01*
X126212087Y-107425543D01*
X126217400Y-107424119D01*
X126217402Y-107424119D01*
X126427933Y-107367707D01*
X126427935Y-107367706D01*
X126433243Y-107366284D01*
X126438225Y-107363961D01*
X126635762Y-107271849D01*
X126635767Y-107271846D01*
X126640749Y-107269523D01*
X126745611Y-107196098D01*
X126823789Y-107141357D01*
X126823792Y-107141355D01*
X126828300Y-107138198D01*
X126990198Y-106976300D01*
X127121523Y-106788749D01*
X127123846Y-106783767D01*
X127123849Y-106783762D01*
X127215961Y-106586225D01*
X127215961Y-106586224D01*
X127218284Y-106581243D01*
X127236226Y-106514285D01*
X127276119Y-106365402D01*
X127276119Y-106365400D01*
X127277543Y-106360087D01*
X127297498Y-106132000D01*
X127277543Y-105903913D01*
X127271062Y-105879727D01*
X127219707Y-105688067D01*
X127219706Y-105688065D01*
X127218284Y-105682757D01*
X127176932Y-105594077D01*
X127123849Y-105480238D01*
X127123846Y-105480233D01*
X127121523Y-105475251D01*
X126990198Y-105287700D01*
X126828300Y-105125802D01*
X126823792Y-105122645D01*
X126823789Y-105122643D01*
X126713654Y-105045526D01*
X126640749Y-104994477D01*
X126635767Y-104992154D01*
X126635762Y-104992151D01*
X126438225Y-104900039D01*
X126438224Y-104900039D01*
X126433243Y-104897716D01*
X126427935Y-104896294D01*
X126427933Y-104896293D01*
X126217402Y-104839881D01*
X126217400Y-104839881D01*
X126212087Y-104838457D01*
X125984000Y-104818502D01*
X125755913Y-104838457D01*
X125750600Y-104839881D01*
X125750598Y-104839881D01*
X125540067Y-104896293D01*
X125540065Y-104896294D01*
X125534757Y-104897716D01*
X125529776Y-104900039D01*
X125529775Y-104900039D01*
X125332238Y-104992151D01*
X125332233Y-104992154D01*
X125327251Y-104994477D01*
X125322744Y-104997633D01*
X125322742Y-104997634D01*
X125308348Y-105007713D01*
X125236077Y-105030500D01*
X115140768Y-105030500D01*
X115129580Y-105029972D01*
X115122092Y-105028298D01*
X115114173Y-105028547D01*
X115107734Y-105027938D01*
X115041799Y-105001612D01*
X115000564Y-104943818D01*
X114997120Y-104872905D01*
X115030501Y-104813403D01*
X115200247Y-104643657D01*
X115208537Y-104636113D01*
X115215018Y-104632000D01*
X115261659Y-104582332D01*
X115264413Y-104579491D01*
X115284135Y-104559769D01*
X115286612Y-104556576D01*
X115294317Y-104547555D01*
X115319159Y-104521100D01*
X115324586Y-104515321D01*
X115328407Y-104508371D01*
X115334346Y-104497568D01*
X115345202Y-104481041D01*
X115352757Y-104471302D01*
X115352758Y-104471300D01*
X115357614Y-104465040D01*
X115375174Y-104424460D01*
X115380391Y-104413812D01*
X115397875Y-104382009D01*
X115397876Y-104382007D01*
X115401695Y-104375060D01*
X115406733Y-104355437D01*
X115413137Y-104336734D01*
X115418033Y-104325420D01*
X115418033Y-104325419D01*
X115421181Y-104318145D01*
X115422420Y-104310322D01*
X115422423Y-104310312D01*
X115428099Y-104274476D01*
X115430505Y-104262856D01*
X115439528Y-104227711D01*
X115439528Y-104227710D01*
X115441500Y-104220030D01*
X115441500Y-104199776D01*
X115443051Y-104180065D01*
X115444980Y-104167886D01*
X115446220Y-104160057D01*
X115442059Y-104116038D01*
X115441500Y-104104181D01*
X115441500Y-102359500D01*
X115461502Y-102291379D01*
X115515158Y-102244886D01*
X115567500Y-102233500D01*
X121333233Y-102233500D01*
X121344416Y-102234027D01*
X121351909Y-102235702D01*
X121359835Y-102235453D01*
X121359836Y-102235453D01*
X121419986Y-102233562D01*
X121423945Y-102233500D01*
X121451856Y-102233500D01*
X121455791Y-102233003D01*
X121455856Y-102232995D01*
X121467693Y-102232062D01*
X121499951Y-102231048D01*
X121503970Y-102230922D01*
X121511889Y-102230673D01*
X121531343Y-102225021D01*
X121550700Y-102221013D01*
X121562930Y-102219468D01*
X121562931Y-102219468D01*
X121570797Y-102218474D01*
X121578168Y-102215555D01*
X121578170Y-102215555D01*
X121611912Y-102202196D01*
X121623142Y-102198351D01*
X121657983Y-102188229D01*
X121657984Y-102188229D01*
X121665593Y-102186018D01*
X121672412Y-102181985D01*
X121672417Y-102181983D01*
X121683028Y-102175707D01*
X121700776Y-102167012D01*
X121719617Y-102159552D01*
X121755387Y-102133564D01*
X121765307Y-102127048D01*
X121796535Y-102108580D01*
X121796538Y-102108578D01*
X121803362Y-102104542D01*
X121817683Y-102090221D01*
X121832717Y-102077380D01*
X121842694Y-102070131D01*
X121849107Y-102065472D01*
X121877298Y-102031395D01*
X121885288Y-102022616D01*
X122312247Y-101595657D01*
X122320537Y-101588113D01*
X122327018Y-101584000D01*
X122373659Y-101534332D01*
X122376413Y-101531491D01*
X122396134Y-101511770D01*
X122398612Y-101508575D01*
X122406318Y-101499553D01*
X122431158Y-101473101D01*
X122436586Y-101467321D01*
X122446346Y-101449568D01*
X122457199Y-101433045D01*
X122464753Y-101423306D01*
X122469613Y-101417041D01*
X122487176Y-101376457D01*
X122492383Y-101365827D01*
X122513695Y-101327060D01*
X122515666Y-101319383D01*
X122515668Y-101319378D01*
X122518732Y-101307442D01*
X122525138Y-101288730D01*
X122530034Y-101277417D01*
X122533181Y-101270145D01*
X122536246Y-101250797D01*
X122540097Y-101226481D01*
X122542504Y-101214860D01*
X122551528Y-101179711D01*
X122551528Y-101179710D01*
X122553500Y-101172030D01*
X122553500Y-101151769D01*
X122555051Y-101132058D01*
X122555060Y-101132000D01*
X124670502Y-101132000D01*
X124690457Y-101360087D01*
X124691881Y-101365400D01*
X124691881Y-101365402D01*
X124737100Y-101534158D01*
X124749716Y-101581243D01*
X124752039Y-101586224D01*
X124752039Y-101586225D01*
X124844151Y-101783762D01*
X124844154Y-101783767D01*
X124846477Y-101788749D01*
X124977802Y-101976300D01*
X125139700Y-102138198D01*
X125144208Y-102141355D01*
X125144211Y-102141357D01*
X125174362Y-102162469D01*
X125327251Y-102269523D01*
X125332233Y-102271846D01*
X125332238Y-102271849D01*
X125529775Y-102363961D01*
X125534757Y-102366284D01*
X125540065Y-102367706D01*
X125540067Y-102367707D01*
X125750598Y-102424119D01*
X125750600Y-102424119D01*
X125755913Y-102425543D01*
X125984000Y-102445498D01*
X126212087Y-102425543D01*
X126217400Y-102424119D01*
X126217402Y-102424119D01*
X126427933Y-102367707D01*
X126427935Y-102367706D01*
X126433243Y-102366284D01*
X126438225Y-102363961D01*
X126635762Y-102271849D01*
X126635767Y-102271846D01*
X126640749Y-102269523D01*
X126793638Y-102162469D01*
X126823789Y-102141357D01*
X126823792Y-102141355D01*
X126828300Y-102138198D01*
X126990198Y-101976300D01*
X127121523Y-101788749D01*
X127123846Y-101783767D01*
X127123849Y-101783762D01*
X127215961Y-101586225D01*
X127215961Y-101586224D01*
X127218284Y-101581243D01*
X127230901Y-101534158D01*
X127276119Y-101365402D01*
X127276119Y-101365400D01*
X127277543Y-101360087D01*
X127297498Y-101132000D01*
X127277543Y-100903913D01*
X127272350Y-100884532D01*
X127219707Y-100688067D01*
X127219706Y-100688065D01*
X127218284Y-100682757D01*
X127205947Y-100656300D01*
X127123849Y-100480238D01*
X127123846Y-100480233D01*
X127121523Y-100475251D01*
X127008481Y-100313811D01*
X126993357Y-100292211D01*
X126993355Y-100292208D01*
X126990198Y-100287700D01*
X126828300Y-100125802D01*
X126823792Y-100122645D01*
X126823789Y-100122643D01*
X126713477Y-100045402D01*
X126640749Y-99994477D01*
X126635767Y-99992154D01*
X126635762Y-99992151D01*
X126438225Y-99900039D01*
X126438224Y-99900039D01*
X126433243Y-99897716D01*
X126427935Y-99896294D01*
X126427933Y-99896293D01*
X126217402Y-99839881D01*
X126217400Y-99839881D01*
X126212087Y-99838457D01*
X125984000Y-99818502D01*
X125755913Y-99838457D01*
X125750600Y-99839881D01*
X125750598Y-99839881D01*
X125540067Y-99896293D01*
X125540065Y-99896294D01*
X125534757Y-99897716D01*
X125529776Y-99900039D01*
X125529775Y-99900039D01*
X125332238Y-99992151D01*
X125332233Y-99992154D01*
X125327251Y-99994477D01*
X125254523Y-100045402D01*
X125144211Y-100122643D01*
X125144208Y-100122645D01*
X125139700Y-100125802D01*
X124977802Y-100287700D01*
X124974645Y-100292208D01*
X124974643Y-100292211D01*
X124959519Y-100313811D01*
X124846477Y-100475251D01*
X124844154Y-100480233D01*
X124844151Y-100480238D01*
X124762053Y-100656300D01*
X124749716Y-100682757D01*
X124748294Y-100688065D01*
X124748293Y-100688067D01*
X124695650Y-100884532D01*
X124690457Y-100903913D01*
X124670502Y-101132000D01*
X122555060Y-101132000D01*
X122555928Y-101126525D01*
X122558219Y-101112057D01*
X122554059Y-101068046D01*
X122553500Y-101056189D01*
X122553500Y-101031394D01*
X122573502Y-100963273D01*
X122607229Y-100928181D01*
X122759789Y-100821357D01*
X122759792Y-100821355D01*
X122764300Y-100818198D01*
X122926198Y-100656300D01*
X122950923Y-100620990D01*
X123054366Y-100473257D01*
X123057523Y-100468749D01*
X123059846Y-100463767D01*
X123059849Y-100463762D01*
X123151961Y-100266225D01*
X123151961Y-100266224D01*
X123154284Y-100261243D01*
X123164150Y-100224425D01*
X123212119Y-100045402D01*
X123212119Y-100045400D01*
X123213543Y-100040087D01*
X123233498Y-99812000D01*
X123213543Y-99583913D01*
X123207593Y-99561707D01*
X123155707Y-99368067D01*
X123155706Y-99368065D01*
X123154284Y-99362757D01*
X123075805Y-99194457D01*
X123059849Y-99160238D01*
X123059846Y-99160233D01*
X123057523Y-99155251D01*
X122984098Y-99050389D01*
X122929357Y-98972211D01*
X122929355Y-98972208D01*
X122926198Y-98967700D01*
X122764300Y-98805802D01*
X122759792Y-98802645D01*
X122759789Y-98802643D01*
X122623446Y-98707175D01*
X122576749Y-98674477D01*
X122571767Y-98672154D01*
X122571762Y-98672151D01*
X122374225Y-98580039D01*
X122374224Y-98580039D01*
X122369243Y-98577716D01*
X122251649Y-98546207D01*
X122191028Y-98509255D01*
X122160006Y-98445394D01*
X122168435Y-98374900D01*
X122213638Y-98320153D01*
X122284262Y-98298500D01*
X132284633Y-98298500D01*
X132304018Y-98300000D01*
G37*
%TD.AperFunction*%
%TA.AperFunction,NonConductor*%
G36*
X120718959Y-107997339D02*
G01*
X120764195Y-108049543D01*
X120780151Y-108083762D01*
X120780154Y-108083767D01*
X120782477Y-108088749D01*
X120913802Y-108276300D01*
X121075700Y-108438198D01*
X121080208Y-108441355D01*
X121080211Y-108441357D01*
X121133550Y-108478705D01*
X121263251Y-108569523D01*
X121268233Y-108571846D01*
X121268238Y-108571849D01*
X121437212Y-108650642D01*
X121470757Y-108666284D01*
X121476065Y-108667706D01*
X121476067Y-108667707D01*
X121662990Y-108717793D01*
X121723613Y-108754745D01*
X121754634Y-108818606D01*
X121746206Y-108889100D01*
X121701003Y-108943847D01*
X121630379Y-108965500D01*
X119669621Y-108965500D01*
X119601500Y-108945498D01*
X119555007Y-108891842D01*
X119544903Y-108821568D01*
X119574397Y-108756988D01*
X119637010Y-108717793D01*
X119823933Y-108667707D01*
X119823935Y-108667706D01*
X119829243Y-108666284D01*
X119862788Y-108650642D01*
X120031762Y-108571849D01*
X120031767Y-108571846D01*
X120036749Y-108569523D01*
X120166450Y-108478705D01*
X120219789Y-108441357D01*
X120219792Y-108441355D01*
X120224300Y-108438198D01*
X120386198Y-108276300D01*
X120517523Y-108088749D01*
X120519846Y-108083767D01*
X120519849Y-108083762D01*
X120535805Y-108049543D01*
X120582722Y-107996258D01*
X120650999Y-107976797D01*
X120718959Y-107997339D01*
G37*
%TD.AperFunction*%
%TA.AperFunction,NonConductor*%
G36*
X118178959Y-107997339D02*
G01*
X118224195Y-108049543D01*
X118240151Y-108083762D01*
X118240154Y-108083767D01*
X118242477Y-108088749D01*
X118373802Y-108276300D01*
X118535700Y-108438198D01*
X118540208Y-108441355D01*
X118540211Y-108441357D01*
X118593550Y-108478705D01*
X118723251Y-108569523D01*
X118728233Y-108571846D01*
X118728238Y-108571849D01*
X118897212Y-108650642D01*
X118930757Y-108666284D01*
X118936065Y-108667706D01*
X118936067Y-108667707D01*
X119122990Y-108717793D01*
X119183613Y-108754745D01*
X119214634Y-108818606D01*
X119206206Y-108889100D01*
X119161003Y-108943847D01*
X119090379Y-108965500D01*
X117129621Y-108965500D01*
X117061500Y-108945498D01*
X117015007Y-108891842D01*
X117004903Y-108821568D01*
X117034397Y-108756988D01*
X117097010Y-108717793D01*
X117283933Y-108667707D01*
X117283935Y-108667706D01*
X117289243Y-108666284D01*
X117322788Y-108650642D01*
X117491762Y-108571849D01*
X117491767Y-108571846D01*
X117496749Y-108569523D01*
X117626450Y-108478705D01*
X117679789Y-108441357D01*
X117679792Y-108441355D01*
X117684300Y-108438198D01*
X117846198Y-108276300D01*
X117977523Y-108088749D01*
X117979846Y-108083767D01*
X117979849Y-108083762D01*
X117995805Y-108049543D01*
X118042722Y-107996258D01*
X118110999Y-107976797D01*
X118178959Y-107997339D01*
G37*
%TD.AperFunction*%
%TA.AperFunction,NonConductor*%
G36*
X115820490Y-108259371D02*
G01*
X115827489Y-108268031D01*
X115830643Y-108271789D01*
X115833802Y-108276300D01*
X115995700Y-108438198D01*
X116000208Y-108441355D01*
X116000211Y-108441357D01*
X116053550Y-108478705D01*
X116183251Y-108569523D01*
X116188233Y-108571846D01*
X116188238Y-108571849D01*
X116357212Y-108650642D01*
X116390757Y-108666284D01*
X116396065Y-108667706D01*
X116396067Y-108667707D01*
X116582990Y-108717793D01*
X116643613Y-108754745D01*
X116674634Y-108818606D01*
X116666206Y-108889100D01*
X116621003Y-108943847D01*
X116550379Y-108965500D01*
X115287161Y-108965500D01*
X115219040Y-108945498D01*
X115172547Y-108891842D01*
X115162443Y-108821568D01*
X115191937Y-108756988D01*
X115242932Y-108721518D01*
X115338295Y-108685768D01*
X115338296Y-108685767D01*
X115346705Y-108682615D01*
X115463261Y-108595261D01*
X115550615Y-108478705D01*
X115601745Y-108342316D01*
X115602917Y-108331526D01*
X115603803Y-108329394D01*
X115604425Y-108326778D01*
X115604848Y-108326879D01*
X115630155Y-108265965D01*
X115688517Y-108225537D01*
X115759471Y-108223078D01*
X115820490Y-108259371D01*
G37*
%TD.AperFunction*%
%TA.AperFunction,NonConductor*%
G36*
X113988417Y-105526027D02*
G01*
X113995909Y-105527702D01*
X114003836Y-105527453D01*
X114010260Y-105528060D01*
X114076196Y-105554384D01*
X114117434Y-105612176D01*
X114120880Y-105683089D01*
X114087498Y-105742596D01*
X113907742Y-105922352D01*
X113899462Y-105929887D01*
X113892982Y-105934000D01*
X113851893Y-105977756D01*
X113846357Y-105983651D01*
X113843602Y-105986493D01*
X113823865Y-106006230D01*
X113821385Y-106009427D01*
X113813682Y-106018447D01*
X113783414Y-106050679D01*
X113779596Y-106057623D01*
X113779592Y-106057629D01*
X113779274Y-106058208D01*
X113778905Y-106058574D01*
X113774935Y-106064039D01*
X113774053Y-106063398D01*
X113728925Y-106108264D01*
X113668863Y-106123500D01*
X113451866Y-106123500D01*
X113389684Y-106130255D01*
X113253295Y-106181385D01*
X113136739Y-106268739D01*
X113049385Y-106385295D01*
X112998255Y-106521684D01*
X112991500Y-106583866D01*
X112991500Y-108280134D01*
X112998255Y-108342316D01*
X113049385Y-108478705D01*
X113136739Y-108595261D01*
X113253295Y-108682615D01*
X113261704Y-108685767D01*
X113261705Y-108685768D01*
X113357068Y-108721518D01*
X113413833Y-108764159D01*
X113438533Y-108830721D01*
X113423326Y-108900070D01*
X113373040Y-108950188D01*
X113312839Y-108965500D01*
X107841203Y-108965500D01*
X107773082Y-108945498D01*
X107726589Y-108891842D01*
X107716485Y-108821568D01*
X107745979Y-108756988D01*
X107775742Y-108732976D01*
X107776705Y-108732615D01*
X107783884Y-108727235D01*
X107783887Y-108727233D01*
X107886081Y-108650642D01*
X107893261Y-108645261D01*
X107980615Y-108528705D01*
X108031745Y-108392316D01*
X108038500Y-108330134D01*
X108038500Y-106533866D01*
X108031745Y-106471684D01*
X107980615Y-106335295D01*
X107893261Y-106218739D01*
X107776705Y-106131385D01*
X107747032Y-106120261D01*
X107658203Y-106086960D01*
X107601439Y-106044318D01*
X107576739Y-105977756D01*
X107591947Y-105908408D01*
X107613493Y-105879727D01*
X107624015Y-105869242D01*
X107718096Y-105775489D01*
X107777594Y-105692689D01*
X107845435Y-105598277D01*
X107848453Y-105594077D01*
X107850746Y-105589437D01*
X107852446Y-105586608D01*
X107904674Y-105538518D01*
X107960451Y-105525500D01*
X113977233Y-105525500D01*
X113988417Y-105526027D01*
G37*
%TD.AperFunction*%
%TA.AperFunction,NonConductor*%
G36*
X106214668Y-98318502D02*
G01*
X106261161Y-98372158D01*
X106271265Y-98442432D01*
X106241771Y-98507012D01*
X106185692Y-98544265D01*
X106151756Y-98555357D01*
X105953607Y-98658507D01*
X105949474Y-98661610D01*
X105949471Y-98661612D01*
X105779100Y-98789530D01*
X105774965Y-98792635D01*
X105620629Y-98954138D01*
X105617715Y-98958410D01*
X105617714Y-98958411D01*
X105608300Y-98972211D01*
X105494743Y-99138680D01*
X105400688Y-99341305D01*
X105340989Y-99556570D01*
X105317251Y-99778695D01*
X105317548Y-99783848D01*
X105317548Y-99783851D01*
X105329559Y-99992151D01*
X105330110Y-100001715D01*
X105331247Y-100006761D01*
X105331248Y-100006767D01*
X105339955Y-100045402D01*
X105379222Y-100219639D01*
X105463266Y-100426616D01*
X105579987Y-100617088D01*
X105726250Y-100785938D01*
X105898126Y-100928632D01*
X105928700Y-100946498D01*
X105971445Y-100971476D01*
X106020169Y-101023114D01*
X106033240Y-101092897D01*
X106006509Y-101158669D01*
X105966055Y-101192027D01*
X105953607Y-101198507D01*
X105949474Y-101201610D01*
X105949471Y-101201612D01*
X105782390Y-101327060D01*
X105774965Y-101332635D01*
X105771393Y-101336373D01*
X105628455Y-101485949D01*
X105620629Y-101494138D01*
X105617715Y-101498410D01*
X105617714Y-101498411D01*
X105551377Y-101595657D01*
X105494743Y-101678680D01*
X105479003Y-101712590D01*
X105409462Y-101862404D01*
X105400688Y-101881305D01*
X105340989Y-102096570D01*
X105317251Y-102318695D01*
X105317548Y-102323848D01*
X105317548Y-102323851D01*
X105323412Y-102425543D01*
X105330110Y-102541715D01*
X105331247Y-102546761D01*
X105331248Y-102546767D01*
X105333490Y-102556715D01*
X105379222Y-102759639D01*
X105463266Y-102966616D01*
X105579987Y-103157088D01*
X105726250Y-103325938D01*
X105898126Y-103468632D01*
X105914279Y-103478071D01*
X105971445Y-103511476D01*
X106020169Y-103563114D01*
X106033240Y-103632897D01*
X106006509Y-103698669D01*
X105966055Y-103732027D01*
X105953607Y-103738507D01*
X105949474Y-103741610D01*
X105949471Y-103741612D01*
X105779100Y-103869530D01*
X105774965Y-103872635D01*
X105771393Y-103876373D01*
X105644780Y-104008866D01*
X105620629Y-104034138D01*
X105494743Y-104218680D01*
X105452209Y-104310312D01*
X105418929Y-104382009D01*
X105400688Y-104421305D01*
X105340989Y-104636570D01*
X105317251Y-104858695D01*
X105330110Y-105081715D01*
X105331247Y-105086761D01*
X105331248Y-105086767D01*
X105355304Y-105193508D01*
X105379222Y-105299639D01*
X105463266Y-105506616D01*
X105579987Y-105697088D01*
X105726250Y-105865938D01*
X105730230Y-105869242D01*
X105734981Y-105873187D01*
X105774616Y-105932090D01*
X105776113Y-106003071D01*
X105738997Y-106063593D01*
X105698724Y-106088112D01*
X105583295Y-106131385D01*
X105466739Y-106218739D01*
X105379385Y-106335295D01*
X105328255Y-106471684D01*
X105321500Y-106533866D01*
X105321500Y-108330134D01*
X105328255Y-108392316D01*
X105379385Y-108528705D01*
X105466739Y-108645261D01*
X105473919Y-108650642D01*
X105576113Y-108727233D01*
X105576116Y-108727235D01*
X105583295Y-108732615D01*
X105583139Y-108732823D01*
X105629452Y-108779237D01*
X105644466Y-108848628D01*
X105619581Y-108915121D01*
X105562698Y-108957604D01*
X105518797Y-108965500D01*
X105459367Y-108965500D01*
X105439982Y-108964000D01*
X105425148Y-108961690D01*
X105425145Y-108961690D01*
X105416276Y-108960309D01*
X105407374Y-108961473D01*
X105407250Y-108961489D01*
X105376808Y-108961760D01*
X105339922Y-108957604D01*
X105311175Y-108954365D01*
X105283673Y-108948088D01*
X105203202Y-108919930D01*
X105177785Y-108907690D01*
X105152564Y-108891842D01*
X105105595Y-108862329D01*
X105083538Y-108844738D01*
X105023262Y-108784462D01*
X105005670Y-108762404D01*
X105002267Y-108756988D01*
X104960310Y-108690214D01*
X104948070Y-108664798D01*
X104919912Y-108584327D01*
X104913635Y-108556826D01*
X104911276Y-108535891D01*
X104907170Y-108499447D01*
X104906888Y-108474640D01*
X104907576Y-108470552D01*
X104907729Y-108458000D01*
X104903773Y-108430376D01*
X104902500Y-108412514D01*
X104902500Y-98859250D01*
X104904246Y-98838345D01*
X104906770Y-98823344D01*
X104906770Y-98823341D01*
X104907576Y-98818552D01*
X104907729Y-98806000D01*
X104907040Y-98801188D01*
X104906723Y-98796327D01*
X104907008Y-98796308D01*
X104906607Y-98769549D01*
X104913635Y-98707175D01*
X104919912Y-98679673D01*
X104948070Y-98599202D01*
X104960310Y-98573785D01*
X104970388Y-98557747D01*
X105005671Y-98501595D01*
X105023262Y-98479538D01*
X105083538Y-98419262D01*
X105105596Y-98401670D01*
X105148200Y-98374900D01*
X105177786Y-98356310D01*
X105203202Y-98344070D01*
X105283673Y-98315912D01*
X105311176Y-98309635D01*
X105370226Y-98302982D01*
X105385868Y-98303077D01*
X105385879Y-98302200D01*
X105394851Y-98302310D01*
X105403724Y-98303691D01*
X105412626Y-98302527D01*
X105412628Y-98302527D01*
X105427951Y-98300523D01*
X105435286Y-98299564D01*
X105451621Y-98298500D01*
X106146547Y-98298500D01*
X106214668Y-98318502D01*
G37*
%TD.AperFunction*%
M02*
